<svg width="16" height="16" viewBox="0 0 16 16" fill="none" xmlns="http://www.w3.org/2000/svg">
<path d="M15.528 7.66398L8.33201 0.468C8.03999 0.18 7.63998 0 7.19999 0H1.60001C0.715987 0 0 0.715987 0 1.60001V7.19999C0 7.64399 0.18 8.04401 0.472012 8.33201L7.67201 15.532C7.96001 15.82 8.36002 16 8.80001 16C9.23999 16 9.64402 15.82 9.93202 15.532L15.532 9.93202C15.82 9.64001 16 9.24003 16 8.80001C16 8.35601 15.82 7.95599 15.528 7.66398ZM2.80001 4.00001C2.136 4.00001 1.60001 3.46402 1.60001 2.80001C1.60001 2.136 2.136 1.60001 2.80001 1.60001C3.46402 1.60001 4.00001 2.136 4.00001 2.80001C4.00001 3.46402 3.46398 4.00001 2.80001 4.00001Z" fill="white"/>
</svg>
