<svg
width="20"
height="20"
viewBox="0 0 20 20"
fill="none"
xmlns="http://www.w3.org/2000/svg"
>
<path
  d="M4.86505 13.0635L0.428992 17.4995C-0.143079 18.0716 -0.143079 18.999 0.428992 19.5711C1.00106 20.1432 1.92852 20.1432 2.50059 19.5711L6.93665 15.1351L4.86505 13.0635Z"
  fill="#7C84E8"
/>
<path
  d="M2.50046 19.571L6.93651 15.1349L5.90073 14.0991L0.428894 19.571C1.00093 20.143 1.92843 20.143 2.50046 19.571Z"
  fill="#6C67D3"
/>
<path
  d="M8.04151 16.2399C8.12018 16.3186 8.18502 16.4059 8.23666 16.4985L8.62979 15.8538C9.7558 14.0072 11.2702 12.4277 13.0679 11.2251C13.8772 10.6838 14.6314 10.0645 15.3198 9.37603L16.1154 8.58045C18.2518 6.44396 19.6168 3.65736 19.9952 0.659666C20.0431 0.279978 19.7202 -0.0429513 19.3405 0.00497839C16.3428 0.383377 13.5562 1.74834 11.4197 3.88482L10.6242 4.68041C9.93572 5.36885 9.31643 6.12306 8.7751 6.93224C7.57248 8.72994 5.99303 10.2444 4.1464 11.3704L3.50171 11.7635C3.59433 11.8152 3.68155 11.88 3.76026 11.9587L8.04151 16.2399Z"
  fill="#ECE9E8"
/>
<path
  d="M8.04154 16.2398C8.12021 16.3185 8.18506 16.4058 8.2367 16.4984L8.62982 15.8537C9.75584 14.0071 11.2703 12.4276 13.068 11.225C13.8772 10.6837 14.6314 10.0644 15.3198 9.37594L16.1154 8.58035C18.2519 6.44387 19.6169 3.65727 19.9953 0.65957C20.0192 0.469727 19.9504 0.294063 19.8283 0.171875L5.90088 14.0992L8.04154 16.2398Z"
  fill="#CEC5C2"
/>
<path
  d="M16.4714 3.52855C16.2426 3.29973 15.8716 3.29973 15.6428 3.52855L5.48651 13.6848L6.31514 14.5135L16.4714 4.35719C16.7003 4.1284 16.7003 3.75738 16.4714 3.52855Z"
  fill="#CEC5C2"
/>
<path
  d="M6.31518 14.5137L16.4715 4.35744C16.7003 4.12861 16.7003 3.75764 16.4715 3.52881L5.90088 14.0994L6.31518 14.5137Z"
  fill="#BFB3AF"
/>
<path
  d="M5.96994 18.3116C5.74111 18.0827 5.74111 17.7118 5.96994 17.4829C6.19877 17.2541 6.56974 17.2541 6.79857 17.4829C7.02701 17.7114 7.39873 17.7114 7.6272 17.4829C7.85568 17.2545 7.85564 16.8827 7.6272 16.6543L3.34592 12.373C3.11748 12.1445 2.74576 12.1445 2.51728 12.373C2.28881 12.6015 2.28885 12.9732 2.51728 13.2016C2.74611 13.4304 2.74611 13.8014 2.51728 14.0302C2.28845 14.2591 1.91748 14.2591 1.68865 14.0302C1.0033 13.3449 1.00326 12.2297 1.68865 11.5443C2.37404 10.8589 3.4892 10.859 4.17459 11.5443L8.45588 15.8257C9.14123 16.511 9.14127 17.6262 8.45588 18.3116C7.77049 18.997 6.65533 18.997 5.96994 18.3116Z"
  fill="#7F6D67"
/>
<path
  d="M7.62719 16.6544C7.85563 16.8828 7.85567 17.2546 7.62719 17.483C7.39872 17.7115 7.027 17.7115 6.79856 17.483C6.56973 17.2542 6.19876 17.2542 5.96993 17.483C5.7411 17.7119 5.7411 18.0828 5.96993 18.3117C6.65528 18.997 7.77047 18.9971 8.45586 18.3117C9.14125 17.6263 9.14121 16.5111 8.45586 15.8257L6.3152 13.6851L5.48657 14.5137L7.62719 16.6544Z"
  fill="#635550"
/>
</svg>