<svg
  width="301"
  height="78"
  viewBox="0 0 301 78"
  fill="none"
  xmlns="http://www.w3.org/2000/svg"
>
  <path
    d="M12.777 0H105.549L109.067 4.30346L113.141 0H184.526L204.524 4.76619V0H223.829L231.791 12.8178L229.06 0H243.642L246.189 1.89722L251.975 0H288.223L301 12.7715V31.8826L294.797 34.15L301 37.9444V50.716L298.454 54.0014H301V64.2742L288.223 77.0457H255.956L240.633 70.7525L234.523 77.0457H179.572L169.388 73.1125L156.148 77.0457H123.696L108.512 73.3438L109.067 77.0457H67.357L62.8665 74.8709C62.8665 74.8709 58.9779 75.7501 53.3763 77.0457H12.777L0 64.2279V47.4768L9.1661 51.6877L0 31.0959V12.7715L12.777 0Z"
    fill="#878FD2"
  />
  <g style="mix-blend-mode: multiply">
    <g clipPath="url(#clip0)">
      <path
        d="M12.779 0H105.565L109.084 4.30349L113.159 0H184.554L204.556 4.76623V0H223.863L231.827 12.8179L229.095 0H243.68L246.226 1.89724L252.014 0H288.267L301.046 12.7716V31.8828L294.842 34.1502L301.046 37.9447V50.7163L298.5 54.0018H301.046V64.2746L288.267 77.0463H255.996L240.67 70.753L234.559 77.0463H179.6L169.414 73.113L156.172 77.0463H123.715L108.529 73.3443L109.084 77.0463H67.3673L62.8762 74.8714C62.8762 74.8714 58.9869 75.7506 53.3846 77.0463H12.779L0 64.2284V47.4772L9.16751 51.6881L0 31.0961V12.7716L12.779 0Z"
        fill="#3C4C4F"
      />
      <path
        d="M3.37994 49.0042L3.19474 59.0457L0 62.3774V47.4772L3.37994 49.0042ZM12.779 0H21.5298L18.4739 3.19291L22.5484 6.57091L10.9732 17.3065L3.33364 13.6046L3.93555 16.6587L3.56514 39.0553L0 31.0962V12.7716L12.779 0Z"
        fill="#4D5A5D"
      />
      <path
        d="M286.739 1.20306L298.453 12.9104V32.8082L294.796 34.1502L298.453 36.3713V62.5162L286.184 74.8251H250.718L240.624 70.7067L236.642 74.8251H174.09L169.46 73.0204L163.441 74.8251H114.872L108.575 73.298L108.806 74.8251H14.8625L2.54654 62.5162L9.16752 59.786L286.739 1.20306Z"
        fill="#050208"
      />
      <path
        d="M20.0944 4.76636H226.826L231.827 12.818L230.114 4.76636H280.906L291.832 15.687V59.7862L280.906 70.7069H20.0944L9.16751 59.7862V15.687L20.0944 4.76636Z"
        fill="#4D5A5D"
      />
      <path
        d="M22.5021 6.5708H227.938L231.827 12.8178L230.484 6.5708H278.498L288.823 16.8899V58.5828L278.498 68.9019H22.5021L12.1771 58.5828V16.8899L22.5021 6.5708Z"
        fill="#4D5A5D"
      />
      <path
        d="M275.442 6.5708H278.498L288.823 16.8899V58.5828L278.498 68.9019H22.5021L12.5475 58.953L30.1417 64.8298L48.9397 58.953L71.0714 63.3028L96.2126 61.1742L121.169 65.2926L194.092 58.4903L195.62 64.8761L238.309 58.7679L255.394 64.4133L275.951 58.953L281.369 40.6285L275.442 6.5708Z"
        fill="#3C4C4F"
      />
      <path
        d="M230.994 8.83842L239.513 9.53253L245.115 6.57099L265.256 5.78433L264.561 17.6768L267.988 6.57099H278.498L281.415 5.27532L264.191 3.47063L232.66 5.87688L230.392 5.83061L230.994 8.83842ZM12.316 11.5686L6.62099 18.1395L9.16752 37.7134L7.0377 44.4694V44.5157L9.16752 49.1431V59.7399L11.8993 59.1846L12.2234 42.2946L15.557 41.9244L12.2234 39.0091V16.8901L15.0477 17.7693L19.7704 16.8901L16.02 13.1419L22.5947 6.57099L27.1321 17.8156L28.2434 6.57099H56.2089L58.6165 8.14431L63.7096 6.57099L76.5348 8.37568L78.5721 9.25489L85.8413 6.52472L100.843 8.74587C100.843 8.74587 122.697 6.52472 123.715 6.52472C124.734 6.52472 140.615 6.52472 140.615 6.52472L145.199 11.3835L148.625 6.52472L181.822 7.54275L183.026 14.1137L185.295 7.31138L198.12 10.5968L211.362 7.17256L229.373 8.60705L227.567 5.69179L209.603 5.46042C209.603 5.46042 201.917 6.94119 201.407 6.94119C200.898 6.94119 194.046 5.36787 194.046 5.36787L180.109 6.15453L177.609 4.44239L174.924 4.76631L151.032 4.0722L146.032 4.76631L137.466 3.8871L118.854 4.76631L109.084 4.30357L99.3147 3.84083L96.0737 5.32159L85.6561 4.16474L79.1277 5.22905L69.5898 3.65573L60.3759 4.81258L27.2247 3.47063L20.789 4.76631C20.789 4.76631 18.7054 5.87688 17.7331 5.59924C16.7608 5.27532 12.0382 2.91534 12.0382 2.91534L5.92648 8.83842L12.316 11.5686Z"
        fill="#B8C6CA"
      />
      <path
        d="M23.5207 71.6323L37.6424 70.7068L39.5407 61.8685L43.4762 70.7068H66.1172L67.6914 62.6089L76.1644 66.3108V68.9022H87.2303L88.2489 53.5854L98.1572 68.9022L115.937 63.7657L122.697 68.208L146.958 68.9022L149.643 64.6449L157.376 68.9022L166.034 54.8811L167.562 68.9022L187.888 67.0512L192.842 68.9022L194.092 58.4905L202.519 70.7068L228.679 64.6449L244.976 66.9124L255.116 68.9022H276.739L266.043 59.0458L283.637 63.7657L288.823 58.583L291.832 59.7862L280.906 70.7068H239.744L88.9897 72.6041L25.6968 73.4833L23.5207 71.6323Z"
        fill="#050208"
      />
    </g>
  </g>
  <path
    d="M69.9491 49H65.5891C63.4824 49 61.8557 48.44 60.7091 47.32C59.5624 46.2 58.9891 44.5867 58.9891 42.48V29.8C58.9891 27.6933 59.5624 26.08 60.7091 24.96C61.8557 23.84 63.4824 23.28 65.5891 23.28H69.9491C72.0291 23.28 73.6424 23.8533 74.7891 25C75.9624 26.12 76.5491 27.72 76.5491 29.8V31.68C76.5491 32.2667 76.2557 32.56 75.6691 32.56H72.3091C71.7491 32.56 71.4691 32.2667 71.4691 31.68V30.04C71.4691 29.1867 71.2824 28.5867 70.9091 28.24C70.5624 27.8667 69.9624 27.68 69.1091 27.68H66.3891C65.5624 27.68 64.9624 27.8667 64.5891 28.24C64.2424 28.5867 64.0691 29.1867 64.0691 30.04V42.24C64.0691 43.0933 64.2424 43.7067 64.5891 44.08C64.9624 44.4267 65.5624 44.6 66.3891 44.6H69.1091C69.9624 44.6 70.5624 44.4267 70.9091 44.08C71.2824 43.7067 71.4691 43.0933 71.4691 42.24V40.6C71.4691 40.0133 71.7491 39.72 72.3091 39.72H75.6691C76.2557 39.72 76.5491 40.0133 76.5491 40.6V42.48C76.5491 44.56 75.9624 46.1733 74.7891 47.32C73.6424 48.44 72.0291 49 69.9491 49ZM94.9125 49H81.7525C81.1925 49 80.9125 48.72 80.9125 48.16V24.12C80.9125 23.56 81.1925 23.28 81.7525 23.28H85.1525C85.7125 23.28 85.9925 23.56 85.9925 24.12V44.12C85.9925 44.4133 86.1525 44.56 86.4725 44.56H94.9125C95.4458 44.56 95.7125 44.8533 95.7125 45.44V48.16C95.7125 48.72 95.4458 49 94.9125 49ZM101.561 49H97.7213C97.2413 49 97.0813 48.72 97.2413 48.16L103.561 24.12C103.748 23.56 104.148 23.28 104.761 23.28H110.081C110.748 23.28 111.148 23.56 111.281 24.12L117.601 48.16C117.761 48.72 117.601 49 117.121 49H113.281C112.988 49 112.788 48.9467 112.681 48.84C112.575 48.7067 112.495 48.48 112.441 48.16L111.321 43.76H103.521L102.401 48.16C102.348 48.48 102.255 48.7067 102.121 48.84C102.015 48.9467 101.828 49 101.561 49ZM107.361 28.12L104.481 39.68H110.401L107.521 28.12H107.361ZM126.427 24.12V48.16C126.427 48.72 126.147 49 125.587 49H122.187C121.627 49 121.347 48.72 121.347 48.16V24.12C121.347 23.56 121.627 23.28 122.187 23.28H125.587C126.147 23.28 126.427 23.56 126.427 24.12ZM148.891 23.28H154.811C155.371 23.28 155.651 23.56 155.651 24.12V48.16C155.651 48.72 155.371 49 154.811 49H151.531C150.971 49 150.691 48.72 150.691 48.16V29.2H150.531L146.451 42.6C146.291 43.1333 145.958 43.4 145.451 43.4H142.091C141.584 43.4 141.251 43.1333 141.091 42.6L136.931 29.16H136.771V48.16C136.771 48.48 136.718 48.7067 136.611 48.84C136.504 48.9467 136.278 49 135.931 49H132.651C132.091 49 131.811 48.72 131.811 48.16V24.12C131.811 23.56 132.091 23.28 132.651 23.28H138.611C138.984 23.28 139.238 23.4667 139.371 23.84L143.611 37.96H143.851L148.131 23.84C148.211 23.4667 148.464 23.28 148.891 23.28ZM173.863 49H170.463C169.903 49 169.623 48.72 169.623 48.16V24.12C169.623 23.56 169.903 23.28 170.463 23.28H173.863C174.423 23.28 174.703 23.56 174.703 24.12V33.52C174.703 33.8133 174.863 33.96 175.183 33.96H181.943C182.237 33.96 182.383 33.8133 182.383 33.52V24.12C182.383 23.56 182.663 23.28 183.223 23.28H186.623C187.183 23.28 187.463 23.56 187.463 24.12V48.16C187.463 48.72 187.183 49 186.623 49H183.223C182.663 49 182.383 48.72 182.383 48.16V38.8C182.383 38.5067 182.237 38.36 181.943 38.36H175.183C174.863 38.36 174.703 38.5067 174.703 38.8V48.16C174.703 48.72 174.423 49 173.863 49ZM206.59 49H193.51C192.95 49 192.67 48.72 192.67 48.16V24.12C192.67 23.56 192.95 23.28 193.51 23.28H206.59C207.124 23.28 207.39 23.56 207.39 24.12V26.84C207.39 27.4 207.124 27.68 206.59 27.68H198.23C197.91 27.68 197.75 27.8267 197.75 28.12V33.32C197.75 33.6133 197.91 33.76 198.23 33.76H205.07C205.63 33.76 205.91 34.04 205.91 34.6V37.32C205.91 37.88 205.63 38.16 205.07 38.16H198.23C197.91 38.16 197.75 38.3067 197.75 38.6V44.16C197.75 44.4533 197.91 44.6 198.23 44.6H206.59C207.124 44.6 207.39 44.88 207.39 45.44V48.16C207.39 48.72 207.124 49 206.59 49ZM216.051 49H212.651C212.091 49 211.811 48.72 211.811 48.16V24.12C211.811 23.56 212.091 23.28 212.651 23.28H222.171C224.251 23.28 225.878 23.8533 227.051 25C228.224 26.1467 228.811 27.76 228.811 29.84V32.96C228.811 35.9733 227.624 37.9733 225.251 38.96V39.12L229.531 48.04C229.771 48.68 229.544 49 228.851 49H225.611C225.131 49 224.784 48.9467 224.571 48.84C224.358 48.7333 224.184 48.5067 224.051 48.16L220.051 39.52H217.371C217.051 39.52 216.891 39.6667 216.891 39.96V48.16C216.891 48.72 216.611 49 216.051 49ZM217.331 35.44H221.251C222.104 35.44 222.731 35.2667 223.131 34.92C223.531 34.5467 223.731 33.96 223.731 33.16V30.04C223.731 29.2133 223.531 28.6133 223.131 28.24C222.731 27.8667 222.104 27.68 221.251 27.68H217.331C217.038 27.68 216.891 27.8267 216.891 28.12V35C216.891 35.2933 217.038 35.44 217.331 35.44ZM240.686 44.6H243.526C244.379 44.6 244.979 44.4267 245.326 44.08C245.699 43.7067 245.886 43.0933 245.886 42.24V30.04C245.886 29.1867 245.699 28.5867 245.326 28.24C244.979 27.8667 244.379 27.68 243.526 27.68H240.686C239.833 27.68 239.233 27.8667 238.886 28.24C238.539 28.5867 238.366 29.1867 238.366 30.04V42.24C238.366 43.0933 238.539 43.7067 238.886 44.08C239.233 44.4267 239.833 44.6 240.686 44.6ZM244.366 49H239.886C237.779 49 236.153 48.44 235.006 47.32C233.859 46.2 233.286 44.5867 233.286 42.48V29.8C233.286 27.6933 233.859 26.08 235.006 24.96C236.153 23.84 237.779 23.28 239.886 23.28H244.366C246.473 23.28 248.099 23.84 249.246 24.96C250.393 26.08 250.966 27.6933 250.966 29.8V42.48C250.966 44.5867 250.393 46.2 249.246 47.32C248.099 48.44 246.473 49 244.366 49Z"
    fill="white"
  />
  <defs>
    <clipPath id="clip0">
      <rect width="301" height="77" fill="white" />
    </clipPath>
  </defs>
</svg>
