<svg
width="20"
height="18"
viewBox="0 0 20 18"
fill="none"
xmlns="http://www.w3.org/2000/svg"
>
<path
  d="M-0.00012207 5.27368L0.58598 4.25855L4.25266 6.37558L3.66656 7.39071L-0.00012207 5.27368Z"
  fill="#FDAE02"
/>
<path
  d="M0 12.7263L3.66668 10.6093L4.25278 11.6244L0.586103 13.7415L0 12.7263Z"
  fill="#FDAE02"
/>
<path
  d="M8.21274 17.4679V13.2339H7.62663L7.47034 15.4588L7.62663 17.4679H8.21274Z"
  fill="#FD8C02"
/>
<path
  d="M8.21274 4.76599V0.531982H7.62663L7.47034 2.64898L7.62663 4.76599H8.21274Z"
  fill="#FD8C02"
/>
<path
  d="M7.04053 0.531982H7.62662V4.76599H7.04053V0.531982Z"
  fill="#FDAE02"
/>
<path
  d="M7.04053 13.2339H7.62662V17.4679H7.04053V13.2339Z"
  fill="#FDAE02"
/>
<path
  d="M7.62662 3.45923L7.23584 9.04643L7.62662 14.5406C10.6817 14.5406 13.1673 12.0551 13.1673 8.99993C13.1673 5.94477 10.6818 3.45923 7.62662 3.45923Z"
  fill="#FDAE02"
/>
<path
  d="M2.08588 8.99993C2.08588 12.0551 4.57142 14.5406 7.62658 14.5406V3.45923C4.57142 3.45923 2.08588 5.94477 2.08588 8.99993Z"
  fill="#FDCB02"
/>
<path
  d="M16.4022 3.81104L12.5165 7.05703L9.27051 10.9427C9.83203 12.4375 11.0217 13.6272 12.5165 14.1887L16.2583 11.2792L19.6482 7.05703C19.0866 5.56227 17.8969 4.37256 16.4022 3.81104Z"
  fill="#373C41"
/>
<path
  d="M14.4593 3.45923C11.4042 3.45923 8.91858 5.94478 8.91858 8.99994C8.91858 9.68326 9.04322 10.3379 9.27047 10.9428L16.4022 3.81109C15.7973 3.58387 15.1426 3.45923 14.4593 3.45923Z"
  fill="#4B5055"
/>
<path
  d="M12.5165 14.1888C13.1214 14.416 13.776 14.5407 14.4593 14.5407C17.5145 14.5407 20 12.0551 20 8.99998C20 8.31667 19.8754 7.66203 19.6481 7.05713L12.5165 14.1888Z"
  fill="#4B5055"
/>
</svg>