<svg
              width="20"
              height="20"
              viewBox="0 0 20 20"
              fill="none"
              xmlns="http://www.w3.org/2000/svg"
            >
              <path
                d="M5.4909 18.1927C4.57291 17.1495 3.65496 16.0646 3.07077 14.7711C2.48661 13.3941 2.3197 11.8085 2.61179 10.3064C2.90389 8.80425 3.57148 7.38554 4.53121 6.1755C4.44777 7.21867 4.82331 8.30353 5.53264 9.09635C5.11537 7.09349 5.783 4.92371 7.11823 3.33813C8.45345 1.75254 10.2894 0.709333 12.2088 0C11.2491 1.00143 11.1239 2.58701 11.4995 3.92228C11.875 5.25751 12.6678 6.42585 13.3772 7.6359C14.0865 8.84595 14.7541 10.0977 14.7959 11.4747C15.1714 10.7654 15.5887 10.056 15.839 9.26323C16.0894 8.47041 16.2146 7.6359 16.006 6.84309C16.757 7.76108 17.1743 8.67903 17.3829 9.84738C17.5915 11.0157 17.5498 12.2258 17.4247 13.3941C17.2577 14.6876 16.9239 16.0229 16.2146 17.1077C15.3801 18.4013 14.0448 19.3192 12.5844 19.8199C9.99734 20.279 7.45202 19.9034 5.4909 18.1927Z"
                fill="#F3705A"
              />
              <path
                d="M8.66217 19.7365C12.0837 21.0718 15.4635 17.0243 13.5858 13.8948C13.5858 13.8531 13.5441 13.8531 13.5441 13.8114C13.711 15.5222 13.2937 16.7739 12.5009 17.4833C12.9182 16.4819 12.6261 15.3135 12.1254 14.3121C11.6247 13.3524 10.9153 12.4762 10.3729 11.5582C9.83044 10.5985 9.4132 9.51358 9.66356 8.42871C8.66213 9.17978 7.95279 10.3064 7.6607 11.5164C7.3686 12.7265 7.53552 14.0618 8.07797 15.1884C7.45208 14.7294 6.9931 13.9783 6.95136 13.1855C6.28373 13.9783 5.8665 15.0214 5.9082 16.0646C5.90824 17.6919 7.20172 19.1523 8.66217 19.7365Z"
                fill="#FFD15C"
              />
            </svg>