<svg
width="20"
height="20"
viewBox="0 0 20 20"
fill="none"
xmlns="http://www.w3.org/2000/svg"
>
<path
  d="M19.9837 16.7305C19.5761 13.5147 17.6515 10.7136 14.8067 9.16586C14.8069 9.13953 14.8071 9.11324 14.8071 9.08703C14.8071 5.99379 13.4147 3.11696 10.9871 1.19423C10.4058 0.733765 9.59395 0.733765 9.01278 1.19419C6.58512 3.11689 5.19278 5.99372 5.19278 9.08703C5.19278 9.11324 5.1929 9.13949 5.1931 9.16582C2.3492 10.713 0.424942 13.5129 0.0164657 16.7275C-0.0062686 16.884 -0.00544829 17.0426 0.0188485 17.1984C0.0413094 17.3437 0.0838484 17.4851 0.144942 17.6179C0.289668 17.9337 0.527207 18.1878 0.831191 18.3525C0.889628 18.3843 0.9508 18.4127 1.01303 18.4369C2.20017 18.9109 3.45509 19.1512 4.74294 19.1512C6.61575 19.1512 8.42481 18.6409 9.99985 17.6717C11.575 18.6409 13.384 19.1512 15.2568 19.1512C16.55 19.1512 17.8099 18.9089 19.0013 18.431C19.6848 18.1569 20.088 17.4583 19.9837 16.7305ZM12.5616 15.4271C13.2613 14.5657 13.8155 13.5908 14.1964 12.5516C15.2869 13.393 16.1102 14.5507 16.5404 15.8522C16.1199 15.9312 15.6901 15.9712 15.2568 15.9712C15.1384 15.9712 15.0207 15.9683 14.9037 15.9626C14.0846 15.9227 13.3004 15.7433 12.5616 15.4271ZM11.5516 8.06246C11.0395 7.98277 10.5198 7.94293 10 7.94293C9.48024 7.94293 8.96047 7.98277 8.44817 8.0625C8.63629 6.79723 9.17149 5.61575 9.99985 4.64012C10.0516 4.7011 10.1023 4.7629 10.1517 4.82544C10.8938 5.76375 11.3752 6.87625 11.5516 8.06246ZM8.82516 11.5548C8.78582 11.4519 8.74895 11.348 8.71457 11.2431C9.5591 11.0828 10.4398 11.0828 11.2843 11.2429C11.0087 12.0818 10.5728 12.8592 9.9993 13.5347C9.49707 12.9439 9.10059 12.2749 8.82516 11.5548ZM4.7429 15.9712C4.3095 15.9712 3.87978 15.9313 3.45927 15.8522C3.88966 14.5503 4.71321 13.3922 5.8045 12.5507C5.98724 13.0484 6.2102 13.533 6.47102 13.9985C6.6827 14.3765 6.91802 14.7399 7.17509 15.0861C7.26079 15.2015 7.34887 15.315 7.43934 15.4265C6.59458 15.7883 5.69056 15.9712 4.7429 15.9712Z"
  fill="#CEB341"
/>
<path
  d="M9.9993 13.5345C9.49707 12.9437 9.10059 12.2747 8.8252 11.5545C8.78586 11.4516 8.74899 11.3477 8.71461 11.2429C9.137 11.1627 9.56844 11.1229 9.99985 11.123L10 7.94271C9.48028 7.94271 8.96051 7.98256 8.44821 8.06228C8.63633 6.79701 9.17153 5.61553 9.99988 4.63991L10.0258 0.849093C9.66891 0.843194 9.31055 0.958116 9.0127 1.19405C6.58505 3.11674 5.19271 5.99358 5.19271 9.08689C5.19271 9.1131 5.19282 9.13935 5.19302 9.16568C2.3492 10.7128 0.424942 13.5127 0.0164657 16.7273C-0.0062686 16.8838 -0.00544829 17.0424 0.0188485 17.1982C0.0413094 17.3435 0.0838484 17.4849 0.144942 17.6177C0.289668 17.9334 0.527207 18.1876 0.831191 18.3523C0.889628 18.3841 0.9508 18.4125 1.01303 18.4367C2.20017 18.9107 3.45509 19.151 4.74294 19.151C6.61575 19.151 8.42481 18.6407 9.99985 17.6715L9.9993 13.5345ZM4.7429 15.971C4.3095 15.971 3.87978 15.9311 3.45927 15.852C3.88966 14.55 4.71321 13.392 5.8045 12.5505C5.98724 13.0481 6.2102 13.5327 6.47102 13.9983C6.6827 14.3763 6.91802 14.7397 7.17509 15.0859C7.26079 15.2013 7.34887 15.3148 7.43934 15.4263C6.59458 15.788 5.69056 15.971 4.7429 15.971Z"
  fill="#EFD96A"
/>
</svg>