<svg width="22" height="20" viewBox="0 0 22 20" fill="none" xmlns="http://www.w3.org/2000/svg">
	<path d="M20.0108 1L12.1978 6.78107L13.6507 3.3741L20.0108 1Z" fill="#E17726" stroke="#E17726" strokeWidth="0.25" strokeLinecap="round" strokeLinejoin="round" />
	<path d="M1.98926 1L9.73271 6.83503L8.34941 3.37409L1.98926 1Z" fill="#E27625" stroke="#E27625" strokeWidth="0.25" strokeLinecap="round" strokeLinejoin="round" />
	<path d="M17.1977 14.4043L15.1189 17.58L19.5702 18.8056L20.8454 14.4737L17.1977 14.4043Z" fill="#E27625" stroke="#E27625" strokeWidth="0.25" strokeLinecap="round" strokeLinejoin="round" />
	<path d="M1.16211 14.4737L2.42949 18.8056L6.8731 17.58L4.80199 14.4043L1.16211 14.4737Z" fill="#E27625" stroke="#E27625" strokeWidth="0.25" strokeLinecap="round" strokeLinejoin="round" />
	<path d="M6.63367 9.03944L5.39722 10.9048L9.80216 11.1052L9.65535 6.36475L6.63367 9.03944Z" fill="#E27625" stroke="#E27625" strokeWidth="0.25" strokeLinecap="round" strokeLinejoin="round" />
	<path d="M15.3662 9.03969L12.2982 6.31104L12.1978 11.1055L16.6027 10.9051L15.3662 9.03969Z" fill="#E27625" stroke="#E27625" strokeWidth="0.25" strokeLinecap="round" strokeLinejoin="round" />
	<path d="M6.87329 17.5799L9.53942 16.2927L7.24425 14.5044L6.87329 17.5799Z" fill="#E27625" stroke="#E27625" strokeWidth="0.25" strokeLinecap="round" strokeLinejoin="round" />
	<path d="M12.4607 16.2927L15.1191 17.5799L14.7559 14.5044L12.4607 16.2927Z" fill="#E27625" stroke="#E27625" strokeWidth="0.25" strokeLinecap="round" strokeLinejoin="round" />
	<path d="M15.1191 17.5802L12.4607 16.293L12.677 18.0196L12.6538 18.7518L15.1191 17.5802Z" fill="#D5BFB2" stroke="#D5BFB2" strokeWidth="0.25" strokeLinecap="round" strokeLinejoin="round" />
	<path d="M6.87329 17.5802L9.34626 18.7518L9.3308 18.0196L9.53942 16.293L6.87329 17.5802Z" fill="#D5BFB2" stroke="#D5BFB2" strokeWidth="0.25" strokeLinecap="round" strokeLinejoin="round" />
	<path d="M9.39259 13.3638L7.18237 12.7164L8.74342 11.9995L9.39259 13.3638Z" fill="#233447" stroke="#233447" strokeWidth="0.25" strokeLinecap="round" strokeLinejoin="round" />
	<path d="M12.6074 13.3638L13.2566 11.9995L14.8254 12.7164L12.6074 13.3638Z" fill="#233447" stroke="#233447" strokeWidth="0.25" strokeLinecap="round" strokeLinejoin="round" />
	<path d="M6.87333 17.58L7.25975 14.4043L4.80225 14.4737L6.87333 17.58Z" fill="#CC6228" stroke="#CC6228" strokeWidth="0.25" strokeLinecap="round" strokeLinejoin="round" />
	<path d="M14.7402 14.4043L15.1189 17.58L17.1977 14.4737L14.7402 14.4043Z" fill="#CC6228" stroke="#CC6228" strokeWidth="0.25" strokeLinecap="round" strokeLinejoin="round" />
	<path d="M16.6027 10.9048L12.1978 11.1052L12.6073 13.3637L13.2565 11.9993L14.8253 12.7162L16.6027 10.9048Z" fill="#CC6228" stroke="#CC6228" strokeWidth="0.25" strokeLinecap="round" strokeLinejoin="round" />
	<path d="M7.18238 12.7162L8.74342 11.9993L9.3926 13.3637L9.80216 11.1052L5.39722 10.9048L7.18238 12.7162Z" fill="#CC6228" stroke="#CC6228" strokeWidth="0.25" strokeLinecap="round" strokeLinejoin="round" />
	<path d="M5.39722 10.9048L7.24422 14.5045L7.18235 12.7162L5.39722 10.9048Z" fill="#E27525" stroke="#E27525" strokeWidth="0.25" strokeLinecap="round" strokeLinejoin="round" />
	<path d="M14.8254 12.7162L14.7559 14.5045L16.6029 10.9048L14.8254 12.7162Z" fill="#E27525" stroke="#E27525" strokeWidth="0.25" strokeLinecap="round" strokeLinejoin="round" />
	<path d="M9.80245 11.1055L9.39282 13.364L9.91059 16.031L10.0265 12.5161L9.80245 11.1055Z" fill="#E27525" stroke="#E27525" strokeWidth="0.25" strokeLinecap="round" strokeLinejoin="round" />
	<path d="M12.1979 11.1055L11.9814 12.5084L12.0897 16.031L12.6074 13.364L12.1979 11.1055Z" fill="#E27525" stroke="#E27525" strokeWidth="0.25" strokeLinecap="round" strokeLinejoin="round" />
	<path d="M12.6074 13.3638L12.0896 16.0308L12.4606 16.2929L14.7558 14.5046L14.8253 12.7163L12.6074 13.3638Z" fill="#F5841F" stroke="#F5841F" strokeWidth="0.25" strokeLinecap="round" strokeLinejoin="round" />
	<path d="M7.18237 12.7163L7.24424 14.5046L9.53941 16.2929L9.91036 16.0308L9.39259 13.3638L7.18237 12.7163Z" fill="#F5841F" stroke="#F5841F" strokeWidth="0.25" strokeLinecap="round" strokeLinejoin="round" />
	<path d="M12.6538 18.7517L12.677 18.0194L12.4761 17.8498H9.52401L9.3308 18.0194L9.34626 18.7517L6.87329 17.5801L7.73882 18.2892L9.49308 19.4994H12.4992L14.2612 18.2892L15.119 17.5801L12.6538 18.7517Z" fill="#C0AC9D" stroke="#C0AC9D" strokeWidth="0.25" strokeLinecap="round" strokeLinejoin="round" />
	<path d="M12.4606 16.2928L12.0897 16.0308H9.91039L9.53949 16.2928L9.33081 18.0195L9.52402 17.8499H12.4761L12.677 18.0195L12.4606 16.2928Z" fill="#161616" stroke="#161616" strokeWidth="0.25" strokeLinecap="round" strokeLinejoin="round" />
	<path d="M20.3432 7.15875L21.0001 3.96762L20.0109 1L12.4607 6.5884L15.3664 9.03954L19.4699 10.2343L20.3741 9.17832L19.98 8.89308L20.6059 8.32273L20.1268 7.95272L20.7528 7.4748L20.3432 7.15875Z" fill="#763E1A" stroke="#763E1A" strokeWidth="0.25" strokeLinecap="round" strokeLinejoin="round" />
	<path d="M1 3.96762L1.66461 7.15875L1.23957 7.4748L1.87326 7.95272L1.39413 8.32273L2.02009 8.89308L1.62596 9.17832L2.53014 10.2343L6.63373 9.03954L9.5394 6.5884L1.98918 1L1 3.96762Z" fill="#763E1A" stroke="#763E1A" strokeWidth="0.25" strokeLinecap="round" strokeLinejoin="round" />
	<path d="M19.4699 10.2343L15.3664 9.03955L16.6029 10.9049L14.7559 14.5046L17.1979 14.4738H20.8455L19.4699 10.2343Z" fill="#F5841F" stroke="#F5841F" strokeWidth="0.25" strokeLinecap="round" strokeLinejoin="round" />
	<path d="M6.63349 9.03955L2.52996 10.2343L1.16211 14.4738H4.80199L7.244 14.5046L5.39704 10.9049L6.63349 9.03955Z" fill="#F5841F" stroke="#F5841F" strokeWidth="0.25" strokeLinecap="round" strokeLinejoin="round" />
	<path d="M12.1979 11.1053L12.4607 6.58827L13.6507 3.37402H8.34937L9.53945 6.58827L9.8022 11.1053L9.90268 12.5235L9.91041 16.0307H12.0897L12.0974 12.5235L12.1979 11.1053Z" fill="#F5841F" stroke="#F5841F" strokeWidth="0.25" strokeLinecap="round" strokeLinejoin="round" />
</svg>
	