<svg
  width="301"
  height="78"
  viewBox="0 0 301 78"
  fill="none"
  xmlns="http://www.w3.org/2000/svg"
>
  <path
    d="M12.777 0H105.549L109.067 4.30346L113.141 0H184.526L204.524 4.76619V0H223.829L231.791 12.8178L229.06 0H243.642L246.189 1.89722L251.975 0H288.223L301 12.7715V31.8826L294.797 34.15L301 37.9444V50.716L298.454 54.0014H301V64.2742L288.223 77.0457H255.956L240.633 70.7525L234.523 77.0457H179.572L169.388 73.1125L156.148 77.0457H123.696L108.512 73.3438L109.067 77.0457H67.357L62.8665 74.8709C62.8665 74.8709 58.9779 75.7501 53.3763 77.0457H12.777L0 64.2279V47.4768L9.1661 51.6877L0 31.0959V12.7715L12.777 0Z"
    fill="#878FD2"
  />
  <g style="mix-blend-mode: multiply">
    <g clipPath="url(#clip0)">
      <path
        d="M12.779 0H105.565L109.084 4.30349L113.159 0H184.554L204.556 4.76623V0H223.863L231.827 12.8179L229.095 0H243.68L246.226 1.89724L252.014 0H288.267L301.046 12.7716V31.8828L294.842 34.1502L301.046 37.9447V50.7163L298.5 54.0018H301.046V64.2746L288.267 77.0463H255.996L240.67 70.753L234.559 77.0463H179.6L169.414 73.113L156.172 77.0463H123.715L108.529 73.3443L109.084 77.0463H67.3673L62.8762 74.8714C62.8762 74.8714 58.9869 75.7506 53.3846 77.0463H12.779L0 64.2284V47.4772L9.16751 51.6881L0 31.0961V12.7716L12.779 0Z"
        fill="#3C4C4F"
      />
      <path
        d="M3.37994 49.0042L3.19474 59.0457L0 62.3774V47.4772L3.37994 49.0042ZM12.779 0H21.5298L18.4739 3.19291L22.5484 6.57091L10.9732 17.3065L3.33364 13.6046L3.93555 16.6587L3.56514 39.0553L0 31.0962V12.7716L12.779 0Z"
        fill="#4D5A5D"
      />
      <path
        d="M286.739 1.20306L298.453 12.9104V32.8082L294.796 34.1502L298.453 36.3713V62.5162L286.184 74.8251H250.718L240.624 70.7067L236.642 74.8251H174.09L169.46 73.0204L163.441 74.8251H114.872L108.575 73.298L108.806 74.8251H14.8625L2.54651 62.5162L9.16749 59.786L286.739 1.20306Z"
        fill="#050208"
      />
      <path
        d="M20.0945 4.76636H226.827L231.827 12.818L230.114 4.76636H280.906L291.833 15.687V59.7862L280.906 70.7069H20.0945L9.16754 59.7862V15.687L20.0945 4.76636Z"
        fill="#4D5A5D"
      />
      <path
        d="M22.5021 6.5708H227.938L231.827 12.8178L230.484 6.5708H278.498L288.823 16.8899V58.5828L278.498 68.9019H22.5021L12.1771 58.5828V16.8899L22.5021 6.5708Z"
        fill="#4D5A5D"
      />
      <path
        d="M275.442 6.5708H278.498L288.823 16.8899V58.5828L278.498 68.9019H22.502L12.5474 58.953L30.1416 64.8298L48.9397 58.953L71.0713 63.3028L96.2125 61.1742L121.169 65.2926L194.092 58.4903L195.62 64.8761L238.309 58.7679L255.394 64.4133L275.951 58.953L281.369 40.6285L275.442 6.5708Z"
        fill="#3C4C4F"
      />
      <path
        d="M230.994 8.83842L239.513 9.53253L245.115 6.57099L265.256 5.78433L264.561 17.6768L267.988 6.57099H278.498L281.415 5.27532L264.191 3.47063L232.66 5.87688L230.392 5.83061L230.994 8.83842ZM12.3159 11.5686L6.62096 18.1395L9.16749 37.7134L7.03767 44.4694V44.5157L9.16749 49.1431V59.7399L11.8992 59.1846L12.2233 42.2946L15.557 41.9244L12.2233 39.0091V16.8901L15.0477 17.7693L19.7703 16.8901L16.02 13.1419L22.5947 6.57099L27.1321 17.8156L28.2433 6.57099H56.2089L58.6165 8.14431L63.7096 6.57099L76.5348 8.37568L78.572 9.25489L85.8412 6.52472L100.843 8.74587C100.843 8.74587 122.696 6.52472 123.715 6.52472C124.734 6.52472 140.615 6.52472 140.615 6.52472L145.199 11.3835L148.625 6.52472L181.822 7.54275L183.026 14.1137L185.295 7.31138L198.12 10.5968L211.362 7.17256L229.373 8.60705L227.567 5.69179L209.603 5.46042C209.603 5.46042 201.917 6.94119 201.407 6.94119C200.898 6.94119 194.046 5.36787 194.046 5.36787L180.109 6.15453L177.609 4.44239L174.924 4.76631L151.032 4.0722L146.032 4.76631L137.466 3.8871L118.854 4.76631L109.084 4.30357L99.3147 3.84083L96.0737 5.32159L85.656 4.16474L79.1276 5.22905L69.5897 3.65573L60.3759 4.81258L27.2247 3.47063L20.7889 4.76631C20.7889 4.76631 18.7054 5.87688 17.7331 5.59924C16.7608 5.27532 12.0381 2.91534 12.0381 2.91534L5.92645 8.83842L12.3159 11.5686Z"
        fill="#B8C6CA"
      />
      <path
        d="M23.5207 71.6323L37.6424 70.7068L39.5407 61.8685L43.4762 70.7068H66.1172L67.6914 62.6089L76.1644 66.3108V68.9022H87.2303L88.2489 53.5854L98.1572 68.9022L115.937 63.7657L122.697 68.208L146.958 68.9022L149.643 64.6449L157.376 68.9022L166.034 54.8811L167.562 68.9022L187.888 67.0512L192.842 68.9022L194.092 58.4905L202.519 70.7068L228.679 64.6449L244.976 66.9124L255.116 68.9022H276.739L266.043 59.0458L283.637 63.7657L288.823 58.583L291.832 59.7862L280.906 70.7068H239.744L88.9897 72.6041L25.6968 73.4833L23.5207 71.6323Z"
        fill="#050208"
      />
    </g>
  </g>
  <path
    d="M97.96 42.44V41.64C97.96 41.08 98.24 40.8 98.8 40.8H102.2C102.76 40.8 103.04 41.08 103.04 41.64V41.96C103.04 42.9733 103.24 43.6667 103.64 44.04C104.04 44.4133 104.773 44.6 105.84 44.6H107.72C108.76 44.6 109.48 44.4 109.88 44C110.307 43.6 110.52 42.8533 110.52 41.76V41.28C110.52 40.5067 110.2 39.92 109.56 39.52C108.947 39.0933 108.173 38.84 107.24 38.76C106.307 38.68 105.293 38.5333 104.2 38.32C103.133 38.08 102.133 37.7867 101.2 37.44C100.267 37.0667 99.48 36.36 98.84 35.32C98.2267 34.2533 97.92 32.8933 97.92 31.24V29.84C97.92 27.76 98.5067 26.1467 99.68 25C100.853 23.8533 102.48 23.28 104.56 23.28H108.56C110.667 23.28 112.307 23.8533 113.48 25C114.653 26.1467 115.24 27.76 115.24 29.84V30.6C115.24 31.16 114.96 31.44 114.4 31.44H111C110.44 31.44 110.16 31.16 110.16 30.6V30.36C110.16 29.32 109.96 28.6133 109.56 28.24C109.16 27.8667 108.427 27.68 107.36 27.68H105.8C104.707 27.68 103.96 27.8933 103.56 28.32C103.187 28.72 103 29.52 103 30.72V31.48C103 32.7333 104.093 33.4533 106.28 33.64C108.547 33.8267 110.56 34.28 112.32 35C113.253 35.4 114.027 36.12 114.64 37.16C115.28 38.1733 115.6 39.48 115.6 41.08V42.44C115.6 44.52 115.013 46.1333 113.84 47.28C112.667 48.4267 111.04 49 108.96 49H104.6C102.52 49 100.893 48.4267 99.72 47.28C98.5467 46.1333 97.96 44.52 97.96 42.44ZM128.122 49H124.763C124.176 49 123.883 48.72 123.883 48.16V28.12C123.883 27.8267 123.736 27.68 123.442 27.68H118.882C118.323 27.68 118.043 27.4 118.043 26.84V24.12C118.043 23.56 118.323 23.28 118.882 23.28H134.003C134.563 23.28 134.843 23.56 134.843 24.12V26.84C134.843 27.4 134.563 27.68 134.003 27.68H129.443C129.123 27.68 128.963 27.8267 128.963 28.12V48.16C128.963 48.72 128.683 49 128.122 49ZM140.577 49H136.737C136.257 49 136.097 48.72 136.257 48.16L142.577 24.12C142.764 23.56 143.164 23.28 143.777 23.28H149.097C149.764 23.28 150.164 23.56 150.297 24.12L156.617 48.16C156.777 48.72 156.617 49 156.137 49H152.297C152.004 49 151.804 48.9467 151.697 48.84C151.59 48.7067 151.51 48.48 151.457 48.16L150.337 43.76H142.537L141.417 48.16C141.364 48.48 141.27 48.7067 141.137 48.84C141.03 48.9467 140.844 49 140.577 49ZM146.377 28.12L143.497 39.68H149.417L146.537 28.12H146.377ZM164.403 49H161.003C160.443 49 160.163 48.72 160.163 48.16V24.12C160.163 23.56 160.443 23.28 161.003 23.28H164.403C164.963 23.28 165.243 23.56 165.243 24.12V35.52H165.323C165.536 34.88 165.949 34.0533 166.563 33.04L172.643 24.12C172.989 23.56 173.509 23.28 174.203 23.28H178.122C178.416 23.28 178.589 23.3733 178.643 23.56C178.723 23.72 178.656 23.9333 178.443 24.2L170.843 34.72L179.323 48C179.509 48.32 179.536 48.5733 179.403 48.76C179.296 48.92 179.056 49 178.682 49H175.763C174.829 49 174.203 48.72 173.883 48.16L167.763 38.36L165.243 41.32V48.16C165.243 48.72 164.963 49 164.403 49ZM196.387 49H183.307C182.747 49 182.467 48.72 182.467 48.16V24.12C182.467 23.56 182.747 23.28 183.307 23.28H196.387C196.921 23.28 197.187 23.56 197.187 24.12V26.84C197.187 27.4 196.921 27.68 196.387 27.68H188.027C187.707 27.68 187.547 27.8267 187.547 28.12V33.32C187.547 33.6133 187.707 33.76 188.027 33.76H194.867C195.427 33.76 195.707 34.04 195.707 34.6V37.32C195.707 37.88 195.427 38.16 194.867 38.16H188.027C187.707 38.16 187.547 38.3067 187.547 38.6V44.16C187.547 44.4533 187.707 44.6 188.027 44.6H196.387C196.921 44.6 197.187 44.88 197.187 45.44V48.16C197.187 48.72 196.921 49 196.387 49Z"
    fill="white"
  />
  <defs>
    <clipPath id="clip0">
      <rect width="301" height="77" fill="white" />
    </clipPath>
  </defs>
</svg>
