<svg
width="20"
height="20"
viewBox="0 0 20 20"
fill="none"
xmlns="http://www.w3.org/2000/svg"
>
<path
  d="M2.97027 1.76782L2.94195 2.32621C2.85839 3.97112 3.28772 5.63508 4.15513 7.05567L5.26799 7.6439L4.99454 8.23214C5.55768 8.95625 6.18807 9.73068 6.28815 10.6057C6.43011 11.8415 5.59078 12.9714 5.87478 14.7027L6.36599 15.291L6.22309 15.8792C6.68952 16.9725 7.47364 17.9121 8.2045 18.8205L9.0196 19.2127L9.89654 18.8205L10.2887 10.5852L9.89654 3.53253L2.97027 1.76782Z"
  fill="#F0F7FF"
/>
<path
  d="M17.183 5.88547C17.5078 4.81218 17.684 3.37543 16.9892 2.07829L16.8229 1.76782L9.89661 3.53253V18.8205L11.3334 19.2127L13.6359 18.8205C12.6862 16.7742 12.3393 15.0658 12.6055 13.739C12.7027 13.2544 12.8723 12.7924 13.0865 12.3498L12.7843 11.7617L13.7712 11.1733C14.8743 9.52202 15.9846 8.55778 16.7211 7.06194L16.4706 6.4737L17.183 5.88547Z"
  fill="#D5E7FA"
/>
<path
  d="M17.183 5.88574H14.1177V7.06222H16.7211C16.7584 6.98629 16.795 6.90978 16.8297 6.8319C16.9458 6.57135 17.0729 6.24939 17.183 5.88574Z"
  fill="#C0DBF2"
/>
<path
  d="M10.5883 12.3498H13.0865C13.2838 11.9419 13.5192 11.5505 13.7712 11.1733H10.5883V12.3498Z"
  fill="#C0DBF2"
/>
<path
  d="M7.64706 7.05591H4.15509C4.41403 7.47995 4.66435 7.80771 4.9945 8.23238H7.64706V7.05591Z"
  fill="#D5E7FA"
/>
<path
  d="M8.8235 14.7026H5.87476C5.94225 15.1139 6.06346 15.5051 6.22307 15.8791H8.8235V14.7026Z"
  fill="#D5E7FA"
/>
<path
  d="M14.1702 16.7954L15.3461 14.4436L16.3978 14.9695L15.2219 17.3213L14.1702 16.7954Z"
  fill="#C0DBF2"
/>
<path
  d="M2.42773 15.7061L3.2595 14.8743L5.11938 16.7342L4.28761 17.5659L2.42773 15.7061Z"
  fill="#D5E7FA"
/>
<path
  d="M15.2941 11.1736H16.4705V12.3501H15.2941V11.1736Z"
  fill="#C0DBF2"
/>
<path
  d="M17.6471 9.99683H18.8236V11.1733H17.6471V9.99683Z"
  fill="#C0DBF2"
/>
<path
  d="M1.17645 7.05566H2.35292V8.23214H1.17645V7.05566Z"
  fill="#D5E7FA"
/>
<path
  d="M0 18.8206V19.997H9.89655L10.2887 19.4088L9.89655 18.8206H0Z"
  fill="#ABE233"
/>
<path
  d="M9.89648 18.8206H20V19.997H9.89648V18.8206Z"
  fill="#4FB927"
/>
<path
  d="M2.97028 1.76788C2.97028 2.74251 6.0713 3.53259 9.89656 3.53259L10.2887 1.76788L9.89656 0.00317383C6.0713 0.00317383 2.97028 0.793292 2.97028 1.76788Z"
  fill="#D5E7FA"
/>
<path
  d="M16.8227 1.76788C16.8227 0.793252 13.7217 0.00317383 9.89648 0.00317383V3.53259C13.7217 3.53259 16.8227 2.74255 16.8227 1.76788Z"
  fill="#C0DBF2"
/>
</svg>