<svg width="16" height="16" viewBox="0 0 16 16" fill="none" xmlns="http://www.w3.org/2000/svg">
<path d="M4.64871 9.13676C5.09835 9.13676 5.53297 9.10772 5.94424 9.05365V4.54571C5.53301 4.49169 5.09835 4.46265 4.64871 4.46265C2.08134 4.46265 6.10352e-05 5.40659 6.10352e-05 6.57106V7.02831C6.10352e-05 8.19274 2.08134 9.13676 4.64871 9.13676Z" fill="white"/>
<path d="M4.64871 11.4906C5.09835 11.4906 5.53297 11.4616 5.94424 11.4076V10.0863C5.53289 10.1403 5.09847 10.1697 4.64871 10.1697C2.40767 10.1697 0.537192 9.45045 0.09783 8.49316C0.0338459 8.63261 6.10352e-05 8.77699 6.10352e-05 8.925V9.38224C6.10352e-05 10.5467 2.08134 11.4906 4.64871 11.4906Z" fill="white"/>
<path d="M5.94418 12.5427V12.44C5.53283 12.4941 5.09841 12.5235 4.64864 12.5235C2.40761 12.5235 0.537131 11.8042 0.0977689 10.8469C0.0337849 10.9863 0 11.1307 0 11.2787V11.736C0 12.9005 2.08127 13.8444 4.64864 13.8444C5.16207 13.8444 5.6559 13.8066 6.11769 13.7368C6.00323 13.5027 5.94418 13.2558 5.94418 13V12.5427Z" fill="white"/>
<path d="M11.3514 0.891602C8.78404 0.891602 6.70276 1.83555 6.70276 3.00001V3.45726C6.70276 4.62172 8.78404 5.56566 11.3514 5.56566C13.9187 5.56566 16.0001 4.62172 16.0001 3.45726V3.00001C16.0001 1.83555 13.9187 0.891602 11.3514 0.891602Z" fill="white"/>
<path d="M11.3514 6.59869C9.11037 6.59869 7.23989 5.87945 6.80053 4.92212C6.73654 5.06152 6.70276 5.2059 6.70276 5.35395V5.8112C6.70276 6.97566 8.78404 7.9196 11.3514 7.9196C13.9187 7.9196 16.0001 6.97566 16.0001 5.8112V5.35395C16.0001 5.2059 15.9663 5.06152 15.9023 4.92212C15.4629 5.87945 13.5924 6.59869 11.3514 6.59869Z" fill="white"/>
<path d="M11.3514 8.9527C9.11037 8.9527 7.23989 8.23342 6.80053 7.27612C6.73654 7.41553 6.70276 7.55991 6.70276 7.70796V8.16521C6.70276 9.32972 8.78404 10.2737 11.3514 10.2737C13.9187 10.2737 16.0001 9.32972 16.0001 8.16521V7.70796C16.0001 7.55991 15.9663 7.41553 15.9023 7.27612C15.4629 8.23346 13.5924 8.9527 11.3514 8.9527Z" fill="white"/>
<path d="M11.3514 11.4336C9.11037 11.4336 7.23989 10.7144 6.80053 9.75708C6.73654 9.89652 6.70276 10.0409 6.70276 10.1889V10.6462C6.70276 11.8106 8.78404 12.7546 11.3514 12.7546C13.9187 12.7546 16.0001 11.8106 16.0001 10.6462V10.1889C16.0001 10.0409 15.9663 9.89644 15.9023 9.75708C15.4629 10.7143 13.5924 11.4336 11.3514 11.4336Z" fill="white"/>
<path d="M11.3514 13.7874C9.11037 13.7874 7.23989 13.0682 6.80053 12.1109C6.73654 12.2503 6.70276 12.3947 6.70276 12.5427V12.9999C6.70276 14.1644 8.78404 15.1083 11.3514 15.1083C13.9187 15.1083 16.0001 14.1644 16.0001 12.9999V12.5426C16.0001 12.3946 15.9663 12.2502 15.9023 12.1108C15.4629 13.0681 13.5924 13.7874 11.3514 13.7874Z" fill="white"/>
</svg>
