<svg width="17" height="17" viewBox="0 0 17 17" fill="none" xmlns="http://www.w3.org/2000/svg">
<path d="M16.5279 8.66396L9.33198 1.468C9.03997 1.18 8.63996 1 8.19997 1H2.60001C1.71598 1 1 1.71598 1 2.60001V8.19997C1 8.64397 1.18 9.04398 1.47201 9.33198L8.67198 16.532C8.95998 16.82 9.35999 16.9999 9.79998 16.9999C10.24 16.9999 10.644 16.82 10.932 16.532L16.532 10.932C16.82 10.64 16.9999 10.24 16.9999 9.79998C16.9999 9.35598 16.82 8.95597 16.5279 8.66396ZM3.8 5C3.13599 5 2.60001 4.46401 2.60001 3.8C2.60001 3.13599 3.13599 2.60001 3.8 2.60001C4.46401 2.60001 5 3.13599 5 3.8C5 4.46401 4.46397 5 3.8 5Z" fill="white"/>
<line x1="0.835069" y1="16.2929" x2="16.035" y2="1.09294" stroke="white" stroke-width="2"/>
</svg>
