<svg width="16" height="16" viewBox="0 0 16 16" fill="none" xmlns="http://www.w3.org/2000/svg">
<path d="M15.9625 5.89622C15.9625 3.0083 13.6804 0.667725 10.8631 0.667725C10.5541 0.667725 10.2506 0.695313 9.9571 0.750489C9.78384 0.782491 9.6128 0.826632 9.44617 0.876291L10.8631 5.89733L15.9625 5.89622Z" fill="white"/>
<path d="M4.67784 6.61805C4.65467 6.21968 4.53438 5.57964 4.05656 4.98153C3.55114 4.3481 2.78088 3.92987 1.77005 3.72461C1.65529 3.58998 1.48534 3.50391 1.29443 3.50391H0.631216C0.283606 3.50391 0 3.78641 0 4.13623C0 4.48604 0.282502 4.76744 0.631216 4.76744H1.29443C1.44893 4.76744 1.58797 4.71006 1.69722 4.61847C2.43989 4.78399 2.99497 5.08746 3.3514 5.52556C3.67363 5.92283 3.76523 6.34879 3.7884 6.61916H3.76302C3.76302 9.38348 6.50197 11.6258 9.88206 11.6258C13.2611 11.6258 16 9.38459 16 6.61916C16 6.61916 4.67784 6.61916 4.67784 6.61805Z" fill="white"/>
<path d="M7.47086 11.8464C6.50969 11.8464 5.72839 12.6277 5.72839 13.5889C5.72839 14.5501 6.50969 15.3314 7.47086 15.3314C8.43203 15.3314 9.21332 14.5501 9.21332 13.5889C9.21332 12.6277 8.43203 11.8464 7.47086 11.8464ZM7.47086 14.4419C7.00076 14.4419 6.61783 14.059 6.61783 13.59C6.61783 13.121 7.00076 12.737 7.47086 12.737C7.94096 12.737 8.32388 13.121 8.32388 13.59C8.32388 14.059 7.94096 14.4419 7.47086 14.4419Z" fill="white"/>
<path d="M12.1708 11.8464C11.2096 11.8464 10.4272 12.6277 10.4272 13.5889C10.4272 14.5501 11.2096 15.3314 12.1708 15.3314C13.1308 15.3314 13.9132 14.5501 13.9132 13.5889C13.9132 12.6277 13.1308 11.8464 12.1708 11.8464ZM12.1708 14.4419C11.6995 14.4419 11.3177 14.059 11.3177 13.59C11.3177 13.121 11.7007 12.737 12.1708 12.737C12.6409 12.737 13.0227 13.121 13.0227 13.59C13.0227 14.059 12.6409 14.4419 12.1708 14.4419Z" fill="white"/>
</svg>
