<svg width="20px" height="20px" viewBox="0 0 22 22" fill="none" xmlns="http://www.w3.org/2000/svg">
  <path d="M21.4001 20.0385L16.1641 14.5928C17.5104 12.9924 18.248 10.9788 18.248 8.88249C18.248 3.98476 14.2633 0 9.36552 0C4.46779 0 0.483032 3.98476 0.483032 8.88249C0.483032 13.7802 4.46779 17.765 9.36552 17.765C11.2042 17.765 12.9564 17.2104 14.4544 16.1576L19.7302 21.6447C19.9507 21.8737 20.2473 22 20.5652 22C20.866 22 21.1514 21.8853 21.3681 21.6768C21.8284 21.2338 21.8431 20.4992 21.4001 20.0385ZM9.36552 2.31717C12.9857 2.31717 15.9308 5.2623 15.9308 8.88249C15.9308 12.5027 12.9857 15.4478 9.36552 15.4478C5.74533 15.4478 2.8002 12.5027 2.8002 8.88249C2.8002 5.2623 5.74533 2.31717 9.36552 2.31717Z" fill="white"/>
  </svg>
  