<svg width="16" height="16" viewBox="0 0 16 16" fill="none" xmlns="http://www.w3.org/2000/svg">
<path d="M15.4998 2.49996H4.00012V1.00001C4.00012 0.798016 3.87813 0.615021 3.69113 0.538024C3.50414 0.461026 3.29015 0.504025 3.14615 0.64602L0.146245 3.64593C-0.0487485 3.84092 -0.0487485 4.15791 0.146245 4.35291L3.14615 7.35281C3.29015 7.49581 3.50414 7.53881 3.69113 7.46181C3.87813 7.38481 4.00012 7.20182 4.00012 6.99982V5.49987H15.4998C15.7758 5.49987 15.9998 5.27588 15.9998 4.99988V2.99995C15.9998 2.72296 15.7758 2.49996 15.4998 2.49996Z" fill="white"/>
<path d="M15.8537 11.6466L12.8538 8.64571C12.7108 8.50271 12.4958 8.45971 12.3089 8.53771C12.1219 8.61571 11.9999 8.7977 11.9999 8.9997V10.4996H0.500228C0.224237 10.4996 0.000244141 10.7236 0.000244141 10.9996V12.9996C0.000244141 13.2756 0.224237 13.4996 0.500228 13.4996H11.9999V14.9995C11.9999 15.2015 12.1219 15.3845 12.3089 15.4615C12.4958 15.5395 12.7108 15.4965 12.8538 15.3535L15.8537 12.3536C16.0487 12.1586 16.0487 11.8416 15.8537 11.6466Z" fill="white"/>
</svg>
