<svg width="741" height="435" viewBox="0 0 741 435" fill="none" xmlns="http://www.w3.org/2000/svg">
<path d="M210.784 271.324L331.13 47.0441L437.252 0L316.907 224.28L210.784 271.324Z" fill="url(#paint0_linear)"/>
<path d="M330.817 220.06L422.248 49.7012L474.138 100.965L383.957 271.793L330.817 220.06Z" fill="url(#paint1_linear)"/>
<path d="M484.296 106.123L551.971 130.817L518.212 193.022L436.158 195.835L484.296 106.123Z" fill="url(#paint2_linear)"/>
<path d="M39.5416 433.046H0V321.624H39.8356C51.0071 321.624 60.7088 323.829 68.7935 328.239C76.8782 332.649 83.199 339.117 87.4618 347.348C91.8717 355.727 93.9296 365.576 93.9296 377.188C93.9296 388.801 91.7247 398.797 87.3148 407.175C82.905 415.554 76.7312 421.875 68.4995 426.432C60.5618 430.841 50.8601 433.046 39.5416 433.046ZM23.5191 412.908H38.5126C48.9492 412.908 56.8869 410.115 62.3257 404.382C67.7645 398.797 70.4104 389.683 70.4104 377.188C70.4104 364.841 67.7645 355.874 62.3257 350.141C56.8869 344.556 48.9492 341.763 38.5126 341.763H23.5191V412.908Z" fill="#FAFAFA"/>
<path d="M111.569 433.046H86.2859L124.798 321.624H155.226L193.592 433.046H168.309L160.077 407.616H119.801L111.569 433.046ZM125.827 389.242H154.197L140.527 347.054H139.645L125.827 389.242Z" fill="#FAFAFA"/>
<path d="M290.314 377.335C290.314 389.536 287.963 399.826 283.406 408.351C278.849 416.877 272.528 423.345 264.737 427.902C256.8 432.311 247.98 434.663 238.131 434.663C228.283 434.663 219.316 432.458 211.525 427.902C203.588 423.345 197.414 416.877 192.857 408.351C188.3 399.826 185.948 389.536 185.948 377.482C185.948 365.282 188.3 354.992 192.857 346.466C197.414 337.941 203.588 331.473 211.525 326.916C219.463 322.506 228.283 320.154 238.131 320.154C247.98 320.154 256.8 322.359 264.737 326.916C272.675 331.326 278.849 337.941 283.406 346.466C288.11 354.845 290.314 365.135 290.314 377.335ZM266.501 377.335C266.501 365.576 263.855 356.462 258.711 350.288C253.566 344.115 246.657 340.881 238.131 340.881C229.606 340.881 222.697 343.968 217.552 350.288C212.407 356.462 209.761 365.576 209.761 377.335C209.761 389.095 212.407 398.209 217.552 404.382C222.697 410.556 229.606 413.79 238.131 413.79C246.657 413.79 253.566 410.703 258.711 404.382C263.855 398.209 266.501 389.095 266.501 377.335Z" fill="#FAFAFA"/>
<path d="M321.918 321.624H351.023L381.745 396.592H383.068L413.79 321.624H442.895V433.046H419.964V360.431H418.935L390.124 432.458H374.542L345.731 360.137H344.849V432.899H321.918V321.624Z" fill="#FAFAFA"/>
<path d="M476.998 434.663C469.06 434.663 462.445 432.605 457.153 428.342C451.861 424.227 449.216 417.906 449.216 409.674C449.216 403.5 450.686 398.502 453.625 394.975C456.565 391.447 460.387 388.801 465.238 387.184C469.942 385.567 475.087 384.391 480.672 383.95C487.875 383.215 493.167 382.48 496.254 381.598C499.341 380.863 500.958 379.099 500.958 376.306V376.012C500.958 372.631 499.929 369.839 497.724 368.075C495.519 366.164 492.579 365.282 488.61 365.282C484.494 365.282 481.113 366.164 478.615 368.075C476.116 369.839 474.499 372.19 473.764 374.983L452.302 373.219C453.919 365.576 457.888 359.549 464.209 355.139C470.53 350.729 478.761 348.377 488.757 348.377C494.931 348.377 500.811 349.406 506.102 351.317C511.541 353.228 515.804 356.315 519.185 360.431C522.566 364.547 524.183 369.986 524.183 376.6V433.046H502.134V421.434H501.546C499.488 425.256 496.548 428.489 492.432 430.988C488.316 433.487 483.171 434.663 476.998 434.663ZM483.612 418.641C488.757 418.641 492.873 417.171 496.107 414.231C499.341 411.291 500.958 407.616 500.958 403.206V394.387C500.076 394.975 498.606 395.563 496.695 396.004C494.784 396.445 492.726 396.886 490.668 397.18C488.463 397.474 486.552 397.768 484.935 398.062C480.819 398.649 477.586 399.825 475.087 401.442C472.588 403.206 471.412 405.705 471.412 408.939C471.412 412.173 472.588 414.525 474.94 416.142C477.145 417.906 480.084 418.641 483.612 418.641Z" fill="#FAFAFA"/>
<path d="M533.002 433.046V321.624H556.228V381.157H557.551L584.304 349.406H610.91L579.894 385.567L612.527 433.046H585.333L562.548 399.385L556.228 406.587V433.193H533.002V433.046Z" fill="#FAFAFA"/>
<path d="M646.041 434.663C637.516 434.663 630.166 432.899 623.845 429.371C617.671 425.844 612.821 420.846 609.587 414.525C606.206 408.057 604.589 400.413 604.589 391.594C604.589 383.068 606.206 375.424 609.587 368.957C612.968 362.489 617.671 357.344 623.698 353.816C629.725 350.288 636.928 348.377 645.159 348.377C652.509 348.377 659.124 349.994 665.151 353.081C671.03 356.168 675.734 360.872 679.262 367.193C682.79 373.513 684.554 381.304 684.554 390.859V397.18H627.667C627.667 403.353 629.431 408.351 632.812 411.879C636.193 415.407 640.897 417.318 646.629 417.318C650.451 417.318 653.832 416.436 656.625 414.819C659.418 413.202 661.476 410.703 662.652 407.616L684.113 409.086C682.496 416.877 678.38 423.051 671.765 427.754C664.857 432.458 656.478 434.663 646.041 434.663ZM627.52 382.774H662.652C662.652 377.776 661.035 373.66 657.801 370.427C654.567 367.193 650.598 365.576 645.453 365.576C640.309 365.576 636.046 367.193 632.812 370.574C629.578 374.101 627.814 378.07 627.52 382.774Z" fill="#FAFAFA"/>
<path d="M690.287 433.046V349.406H712.777V363.959H713.659C715.129 358.814 717.775 354.845 721.303 352.199C724.831 349.553 729.093 348.23 733.65 348.23C736.296 348.23 738.648 348.524 741 349.112V369.692C739.971 369.398 738.354 369.104 736.443 368.81C734.532 368.516 732.768 368.516 731.151 368.516C726.007 368.516 721.744 370.133 718.51 373.366C715.129 376.6 713.512 380.716 713.512 385.861V433.193H690.287V433.046Z" fill="#FAFAFA"/>
<defs>
<linearGradient id="paint0_linear" x1="211.028" y1="271.16" x2="559.886" y2="-0.599038" gradientUnits="userSpaceOnUse">
<stop stop-color="#48D5FF"/>
<stop offset="1" stop-color="#4086FF"/>
</linearGradient>
<linearGradient id="paint1_linear" x1="214.052" y1="271.916" x2="577.374" y2="-0.618866" gradientUnits="userSpaceOnUse">
<stop stop-color="#48D5FF"/>
<stop offset="1" stop-color="#4086FF"/>
</linearGradient>
<linearGradient id="paint2_linear" x1="212.54" y1="270.783" x2="564.883" y2="4.90065" gradientUnits="userSpaceOnUse">
<stop stop-color="#48D5FF"/>
<stop offset="1" stop-color="#4086FF"/>
</linearGradient>
</defs>
</svg>
