<svg width="43" height="60" viewBox="0 0 43 60" fill="none" xmlns="http://www.w3.org/2000/svg">
<path d="M19.9515 22.1591L23.5799 27.7701L24.9158 12.8274L19.7678 18.7431L19.9515 22.1591Z" fill="#D01F36"/>
<path d="M28.0568 9.86046L24.5176 29.2216L25.2747 30.3918C25.4159 30.6095 25.5773 30.8155 25.7695 30.9896C26.0594 31.2509 26.3875 31.4441 26.7337 31.5715L36.5412 0.174072L28.0568 9.86046Z" fill="#D01F36"/>
<path d="M23.8856 32.4104L23.9865 32.3297L23.9175 32.2468L23.8856 32.4104Z" fill="#D01F36"/>
<path d="M6.14078 12.6734L23.2826 33.5976L22.8164 33.9693L6.41475 16.9719L7.68156 24.6853L19.7858 36.2013L19.3919 36.5326L7.90349 28.3222L8.67547 34.6584L14.4096 37.6519C15.5203 38.0893 15.5681 39.6439 14.4871 40.1494L6.15884 45.0202L14.1016 45.3366L24.7246 39.9083L31.5514 36.419L31.5694 36.4105C32.2002 36.1344 33.4192 35.5823 34.4683 34.994C35.9635 34.153 36.9266 35.6492 36.9266 35.6492C37.6264 34.0893 35.4272 32.6865 33.2546 31.7659C33.2249 31.7532 33.1973 31.7415 33.1686 31.7309C33.9979 32.3818 34.7699 33.1007 35.0938 33.7187C35.0163 33.6709 32.5326 32.1333 29.5827 31.7117C28.5112 33.3661 26.0105 33.5127 24.7161 31.8848L4.10199 0L6.14078 12.6734Z" fill="#D01F36"/>
<path d="M2.76087 57.133H1.81368V59.999H0V51.8098H3.11235C3.76009 51.8098 4.30801 51.9351 4.75612 52.1847C5.20423 52.4342 5.53766 52.7634 5.75641 53.1733C5.97515 53.5831 6.08346 54.0259 6.08346 54.5006C6.08346 55.0315 5.95073 55.5083 5.68526 55.9341C5.41979 56.3589 5.03009 56.6774 4.51508 56.8877L6.27035 60H4.36429L2.76087 57.133ZM1.81368 55.6474H2.82033C3.24189 55.6474 3.59656 55.5593 3.88539 55.3841C4.17422 55.2089 4.31863 54.9147 4.31863 54.5006C4.31863 54.1024 4.17634 53.8199 3.89176 53.6522C3.60718 53.4844 3.25039 53.4005 2.82139 53.4005H1.81474V55.6474H1.81368Z" fill="#D01F36"/>
<path d="M9.0907 53.4005V55.1441H12.203V56.5596H9.0907V58.4083H12.7881V59.999H7.25366V51.8098H12.7871V53.4005H9.0907Z" fill="#D01F36"/>
<path d="M13.8755 51.7981H17.1047C17.8299 51.7981 18.4692 51.9606 19.0235 52.2834C19.5767 52.6072 20.0078 53.0755 20.3158 53.6872C20.6237 54.2999 20.7777 55.0304 20.7777 55.881C20.7777 56.7464 20.6216 57.4876 20.3094 58.1035C19.9972 58.7194 19.5629 59.1877 19.0044 59.5073C18.4469 59.8269 17.8055 59.9873 17.0802 59.9873H13.8745V51.7981H13.8755ZM16.7415 58.3498C17.3808 58.3498 17.8883 58.1672 18.2621 57.7998C18.6369 57.4335 18.8238 56.7942 18.8238 55.881C18.8238 54.9688 18.638 54.3285 18.2685 53.9622C17.8979 53.5958 17.3892 53.4121 16.7415 53.4121H15.6414V58.3498H16.7415Z" fill="#D01F36"/>
<path d="M23.3984 51.8098H24.2054V55.5423H24.2638L27.6331 51.8098H28.6631L25.3522 55.3543L28.9679 59.999H28.008L24.8606 55.9511L24.2054 56.653V59.999H23.3984V51.8098Z" fill="white"/>
<path d="M29.9267 51.8098H30.7454V59.999H29.9267V51.8098Z" fill="white"/>
<path d="M37.3205 52.5468H34.84V59.999H34.033V52.5468H31.5525V51.8098H37.3205V52.5468Z" fill="white"/>
<path d="M38.8295 52.5468V55.4711H42.4802V56.1497H38.8295V59.262H42.9474V59.999H38.0225V51.8098H42.9474V52.5468H38.8295Z" fill="white"/>
</svg>
