<svg id="wave" xmlns="http://www.w3.org/2000/svg" width="8000" height="1063" viewBox="0 0 8000 1063">
  <defs>
    <style>
      .cls-1, .cls-2 {
        fill: #fff;
        fill-rule: evenodd;
      }

      .cls-2 {
        opacity: 0.1;
      }
    </style>
  </defs>
  <path id="wave-btm" class="cls-1" d="M15.1,1746.46H7987.08V591.58c-690.26-145.357-994.6-148.752-1449.83-12.462C6131.35,700.635,5542.97,830.4,4871.41,703.745S3530.24,631.013,2794.29,836.683s-1463.71,68.491-1686.62,4.151c-204.781-59.109-733.959-249.8-1099.4-178.947Z"/>
  <path id="wave1" class="cls-2" d="M-717.2,1401.95l9151.415-93.59-41.18-389.052C8071.52,659.845,7666.9,31.424,5722.09,384.054,3817.88,729.326,3289.13,631.5,2524.84,589.853s-2982.3-222.879-3379.9,504.407Z"/>
  <path id="wave2" class="cls-2" d="M7995.47,1237.29C7109.56,988.943,6217.71,677.169,4738.72,900.273s-1930.57,58.859-2450.87-83.209S843.659,433.917-320.872,733.845V2156.79H7974.7Z"/>
</svg>
