<svg width="17" height="16" viewBox="0 0 17 16" fill="none" xmlns="http://www.w3.org/2000/svg">
<g clipPath="url(#clip0)">
<path d="M8.36364 16C12.9827 16 16.7273 12.4183 16.7273 8C16.7273 3.58172 12.9827 0 8.36364 0C3.74453 0 0 3.58172 0 8C0 12.4183 3.74453 16 8.36364 16Z" fill="#32BA7C"/>
<path d="M6.22656 11.6088L10.5271 15.7223C14.0889 14.8138 16.7273 11.7097 16.7273 7.99994C16.7273 7.92423 16.7273 7.84852 16.7273 7.77281L13.3502 4.79489L6.22656 11.6088Z" fill="#0AA06E"/>
<path d="M8.57472 9.79176C8.94409 10.1451 8.94409 10.7508 8.57472 11.1041L7.80959 11.8359C7.44022 12.1892 6.80701 12.1892 6.43764 11.8359L3.0869 8.60564C2.71753 8.25233 2.71753 7.64665 3.0869 7.29334L3.85203 6.56148C4.2214 6.20817 4.85461 6.20817 5.22399 6.56148L8.57472 9.79176Z" fill="white"/>
<path d="M11.5033 4.21451C11.8727 3.8612 12.5059 3.8612 12.8753 4.21451L13.6404 4.94637C14.0098 5.29968 14.0098 5.90536 13.6404 6.25867L7.83599 11.7855C7.46661 12.1388 6.8334 12.1388 6.46403 11.7855L5.6989 11.0536C5.32953 10.7003 5.32953 10.0946 5.6989 9.74132L11.5033 4.21451Z" fill="white"/>
</g>
<defs>
<clipPath id="clip0">
<rect width="16.7273" height="16" fill="white"/>
</clipPath>
</defs>
</svg>
