<svg width="83" height="92" viewBox="0 0 83 92" fill="none" xmlns="http://www.w3.org/2000/svg">
<mask id="mask0" mask-type="alpha" maskUnits="userSpaceOnUse" x="0" y="9" width="83" height="83">
<circle cx="41.5" cy="50.5" r="41" stroke="white"/>
</mask>
<g mask="url(#mask0)">
<path d="M-1.26844 22.0385L84.7279 21.2443L86.5 103L-2.50001 67L-1.26844 22.0385Z" fill="#C4C4C4"/>
</g>
<path d="M7.44432 73.7681L7.05329 73.1327C6.95553 73.0349 7.00441 72.9372 7.10217 72.8883L11.5502 70.0533C11.6479 69.9555 11.7457 70.0044 11.8434 70.1022L12.2345 70.7376C12.2833 70.8354 12.2833 70.9331 12.1856 70.982L10.0349 72.3506C10.1815 72.3017 10.4259 72.3017 10.6703 72.3017L13.0654 72.3995C13.212 72.3995 13.3098 72.4484 13.4076 72.595L13.8475 73.2793C13.8475 73.3282 13.8964 73.3771 13.8475 73.4259C13.8475 73.4259 13.7986 73.4748 13.7008 73.4259L10.8659 73.2793L9.39948 76.4076C9.3506 76.4564 9.30172 76.5053 9.25284 76.5053C9.20397 76.5053 9.15509 76.4564 9.10621 76.4076L8.76405 75.8699C8.6663 75.6744 8.61742 75.5277 8.71517 75.43L9.79051 73.1327L8.95957 73.0349L7.68871 73.817C7.59096 73.8659 7.4932 73.8659 7.44432 73.7681Z" fill="white"/>
<path d="M10.3282 77.9718L9.79051 77.3363C9.74163 77.2386 9.74164 77.1897 9.83939 77.1408L14.7762 74.7457C14.8739 74.6969 15.0206 74.7457 15.0695 74.8435L15.8515 75.7233C15.9493 75.8211 15.9493 75.9188 15.9004 76.0655L12.821 80.5623C12.7721 80.6601 12.6744 80.6601 12.6255 80.6112L12.0878 79.9758C12.039 79.9269 12.039 79.878 12.039 79.8292C12.039 79.7803 12.0878 79.7314 12.1367 79.6825L12.7233 78.8516L11.599 77.5318L10.7192 77.9718C10.6703 78.0206 10.6215 78.0206 10.5726 78.0206C10.5237 78.0206 10.3771 78.0206 10.3282 77.9718ZM14.6784 75.9188L12.3322 77.0919L13.1632 78.0695L14.6784 75.9188Z" fill="white"/>
<path d="M13.7497 81.4421L17.2201 77.434C17.3179 77.3363 17.3668 77.3363 17.4645 77.434L19.0775 78.8027C19.4197 79.0959 19.6152 79.4381 19.6641 79.7802C19.713 80.1224 19.5663 80.4645 19.2731 80.8067L19.0287 81.1C18.6865 81.491 18.2955 81.5888 17.8556 81.3932C18.0022 81.5888 18.1 81.7843 18.1 81.9798C18.1 82.1753 18.0022 82.4197 17.8067 82.6152L17.4645 83.0062C17.1713 83.3484 16.8291 83.5439 16.487 83.5439C16.1448 83.5439 15.8026 83.4462 15.4605 83.104L13.7986 81.6376C13.652 81.5888 13.652 81.491 13.7497 81.4421ZM15.1183 81.6376L15.8515 82.2731C15.9982 82.4197 16.1448 82.4686 16.2426 82.4686C16.3403 82.4686 16.487 82.3708 16.5847 82.2731L16.9269 81.882C17.0246 81.7354 17.0735 81.6376 17.0735 81.491C17.0735 81.3932 16.9757 81.2466 16.8291 81.1L16.0959 80.4645C16.047 80.4157 15.9982 80.4157 15.9493 80.4645L15.0695 81.4421C15.0695 81.5888 15.0695 81.5888 15.1183 81.6376ZM16.7313 79.8291L17.4157 80.4157C17.5623 80.5623 17.7089 80.6112 17.8067 80.6112C17.9044 80.6112 18.0511 80.5623 18.1488 80.4157L18.3932 80.1713C18.491 80.0246 18.5888 79.9269 18.5399 79.7802C18.5399 79.6825 18.4421 79.5358 18.2955 79.4381L17.6112 78.8027C17.5623 78.7538 17.5134 78.7538 17.4645 78.8027L16.6825 79.6825C16.6825 79.7314 16.6825 79.7802 16.7313 79.8291Z" fill="white"/>
<path d="M19.5174 86.1346L18.882 85.7435C18.7843 85.6946 18.7843 85.5969 18.8331 85.4991L19.8596 83.935L20.3484 80.2202C20.3484 80.1713 20.3973 80.1224 20.4461 80.1224C20.495 80.1224 20.5439 80.1224 20.5928 80.1224L21.3748 80.6112C21.4726 80.6601 21.4726 80.7579 21.4726 80.9045L21.0327 83.1529L21.0816 83.2018L22.9879 81.8821C23.0856 81.7843 23.1834 81.7843 23.2811 81.8332L24.0632 82.322C24.1121 82.3709 24.1609 82.3709 24.1609 82.4198C24.1609 82.4686 24.161 82.5175 24.0632 82.5175L20.8372 84.4727L19.8107 86.0368C19.713 86.1834 19.6152 86.2323 19.5174 86.1346Z" fill="white"/>
<path d="M24.552 88.8718L23.7699 88.5785C23.6722 88.5296 23.6722 88.4807 23.721 88.383L26.9471 83.9839C27.0448 83.8861 27.1426 83.8372 27.2403 83.8861L28.3157 84.326C28.4623 84.3749 28.5112 84.4727 28.5112 84.6193L27.8269 90.0449C27.8269 90.1915 27.778 90.2404 27.6802 90.1915L26.8982 89.8982C26.8493 89.8982 26.8004 89.8494 26.8004 89.8005C26.8004 89.7516 26.8004 89.7027 26.8004 89.6538L26.9471 88.6763L25.334 88.0408L24.7475 88.8718C24.6986 88.9207 24.6986 88.9695 24.6497 88.9695C24.6497 88.8718 24.6009 88.8718 24.552 88.8718ZM27.4358 85.0592L25.9206 87.2099L27.1426 87.6987L27.4358 85.0592Z" fill="white"/>
<path d="M30.0264 90.7781L29.2933 90.5825C29.1955 90.5337 29.1466 90.4848 29.1466 90.3381L30.3686 85.2058C30.4175 85.1081 30.4664 85.0592 30.613 85.0592L32.6659 85.548C33.1058 85.6458 33.448 85.8413 33.6435 86.1834C33.839 86.4767 33.8879 86.8677 33.7901 87.3076L33.6435 87.9919C33.4969 88.6274 33.1547 89.0184 32.5682 89.1162V89.165L33.0081 91.3157C33.0081 91.4624 32.9592 91.5112 32.8126 91.4624L32.1282 91.3157C32.0305 91.3157 31.9327 91.2668 31.9327 91.218C31.8838 91.1691 31.8838 91.1202 31.835 91.0224L31.4439 88.9695L30.8574 88.8229C30.8085 88.8229 30.7596 88.8229 30.7108 88.8718L30.2708 90.6314C30.222 90.7292 30.1242 90.7781 30.0264 90.7781ZM30.9551 87.8942L31.7861 88.0897C31.9816 88.1386 32.1282 88.1386 32.226 88.0897C32.3238 88.0408 32.4215 87.9431 32.4215 87.7476L32.5682 87.0632C32.617 86.8677 32.617 86.77 32.5193 86.6233C32.4704 86.5256 32.3238 86.4278 32.1282 86.4278L31.2973 86.2323C31.2484 86.2323 31.1995 86.2323 31.1995 86.2812L30.8574 87.7476C30.9063 87.8453 30.9063 87.8942 30.9551 87.8942Z" fill="white"/>
<path d="M37.3583 91.9511L34.4744 91.6579C34.3767 91.6579 34.2789 91.5601 34.3278 91.4623L34.8655 86.1834C34.8655 86.0368 34.9632 85.9879 35.061 86.0368L37.9449 86.33C38.0426 86.33 38.0915 86.4278 38.0915 86.5256L37.9937 87.1121C37.9937 87.2587 37.896 87.3076 37.7982 87.2587L35.9897 87.1121C35.9408 87.1121 35.8919 87.1121 35.8919 87.2099L35.7942 88.3341C35.7942 88.383 35.8431 88.4318 35.8919 88.4318L37.4072 88.5785C37.5538 88.5785 37.6027 88.6762 37.5538 88.774L37.5049 89.3605C37.5049 89.5072 37.4072 89.5561 37.3094 89.5072L35.7942 89.3605C35.7453 89.3605 35.6964 89.3605 35.6964 89.4583L35.5987 90.6803C35.5987 90.7292 35.6475 90.778 35.6964 90.778L37.5049 90.9735C37.6027 90.9735 37.6516 91.0713 37.6516 91.1691L37.6027 91.7556C37.5049 91.9022 37.4561 91.9511 37.3583 91.9511Z" fill="white"/>
<path d="M39.9 92H39.1668C39.0202 92 38.9713 91.9511 38.9713 91.8045L38.7758 86.5745C38.7758 86.4278 38.8247 86.3789 38.9713 86.3789H39.6067C39.7534 86.3789 39.8022 86.4278 39.8511 86.4767L41.7574 89.7516H41.8063L41.7085 86.4767C41.7085 86.3301 41.7574 86.2812 41.904 86.2812L42.6372 86.2323C42.7839 86.2323 42.8328 86.2812 42.8328 86.4278L43.0283 91.7068C43.0283 91.8534 42.9794 91.9023 42.8328 91.9023H42.1973C42.0507 91.9023 41.9529 91.8534 41.904 91.7556L40.0466 88.5296H39.9978L40.0955 91.8045C40.0955 91.9511 40.0466 92 39.9 92Z" fill="white"/>
<path d="M45.2767 91.5601L44.4458 91.7067C44.348 91.7067 44.2991 91.6578 44.2991 91.5601L44.6902 86.1345C44.6902 85.9879 44.7879 85.939 44.9346 85.8901L46.1077 85.6946C46.2543 85.6457 46.3521 85.6946 46.4009 85.8412L48.7471 90.778C48.796 90.8758 48.796 90.9735 48.6982 90.9735L47.8673 91.1202C47.8184 91.1202 47.7695 91.1202 47.7207 91.1202C47.6718 91.1202 47.6718 91.0713 47.6229 90.9735L47.183 90.0448L45.4722 90.3381L45.4233 91.3157C45.4233 91.3646 45.4234 91.4135 45.3745 91.4623C45.3745 91.5601 45.3256 91.5601 45.2767 91.5601ZM45.6677 86.8188L45.5211 89.4583L46.792 89.2139L45.6677 86.8188Z" fill="white"/>
<path d="M33.4987 64H29.5452C27.4806 64 25.8553 63.4162 24.7132 62.2936C23.5711 61.171 23 59.5544 23 57.399V44.601C23 42.4905 23.5711 40.829 24.7132 39.7064C25.8553 38.5838 27.4367 38 29.5452 38H33.4987C35.5633 38 37.1447 38.5838 38.2868 39.7064C39.429 40.8739 40 42.4905 40 44.601V57.399C40 59.5095 39.429 61.1261 38.2868 62.2487C37.1447 63.4162 35.5633 64 33.4987 64ZM30.3799 59.5544H32.708C33.5427 59.5544 34.1576 59.3748 34.4651 59.0155C34.8166 58.6563 34.9923 58.0276 34.9923 57.1744V44.8256C34.9923 43.9724 34.8166 43.3437 34.4651 42.9845C34.1137 42.6252 33.5427 42.4456 32.708 42.4456H30.3799C29.5452 42.4456 28.9302 42.6252 28.6228 42.9845C28.2713 43.3437 28.0956 43.9724 28.0956 44.8256V57.1744C28.0956 58.0276 28.2713 58.6563 28.6228 59.0155C28.9742 59.3748 29.5452 59.5544 30.3799 59.5544Z" fill="#FFCF3D"/>
<path d="M49.119 64H45.2663C45.0397 64 44.8584 63.9102 44.7677 63.7755C44.6771 63.6408 44.6771 63.4162 44.813 63.1468L53.4249 42.715H43.8612C43.272 42.715 43 42.4456 43 41.8618V38.8532C43 38.2694 43.272 38 43.8612 38H58.1388C58.7281 38 59 38.2694 59 38.8532V42.266C59 42.8048 58.8187 43.5233 58.4108 44.4663L50.4788 63.2815C50.2521 63.7306 49.7989 64 49.119 64Z" fill="#FFCF3D"/>
<path d="M24.816 23H23.456C23.232 23 23.12 22.888 23.12 22.664V19.24L20.192 13.064C20.1493 12.968 20.1493 12.888 20.192 12.824C20.2453 12.7493 20.32 12.712 20.416 12.712H22.112C22.2827 12.712 22.4107 12.824 22.496 13.048L24.096 16.936H24.208L25.776 13.048C25.8507 12.824 25.9787 12.712 26.16 12.712H27.856C27.9627 12.712 28.0373 12.744 28.08 12.808C28.1333 12.872 28.1333 12.9573 28.08 13.064L25.152 19.24V22.664C25.152 22.888 25.04 23 24.816 23ZM34.8736 23H29.6416C29.4176 23 29.3056 22.888 29.3056 22.664V13.048C29.3056 12.824 29.4176 12.712 29.6416 12.712H34.8736C35.087 12.712 35.1936 12.824 35.1936 13.048V14.136C35.1936 14.36 35.087 14.472 34.8736 14.472H31.5296C31.4016 14.472 31.3376 14.5307 31.3376 14.648V16.728C31.3376 16.8453 31.4016 16.904 31.5296 16.904H34.2656C34.4896 16.904 34.6016 17.016 34.6016 17.24V18.328C34.6016 18.552 34.4896 18.664 34.2656 18.664H31.5296C31.4016 18.664 31.3376 18.7227 31.3376 18.84V21.064C31.3376 21.1813 31.4016 21.24 31.5296 21.24H34.8736C35.087 21.24 35.1936 21.352 35.1936 21.576V22.664C35.1936 22.888 35.087 23 34.8736 23ZM38.0339 23H36.4979C36.3059 23 36.2419 22.888 36.3059 22.664L38.8339 13.048C38.9085 12.824 39.0685 12.712 39.3139 12.712H41.4419C41.7085 12.712 41.8685 12.824 41.9219 13.048L44.4499 22.664C44.5139 22.888 44.4499 23 44.2579 23H42.7219C42.6045 23 42.5245 22.9787 42.4819 22.936C42.4392 22.8827 42.4072 22.792 42.3859 22.664L41.9379 20.904H38.8179L38.3699 22.664C38.3485 22.792 38.3112 22.8827 38.2579 22.936C38.2152 22.9787 38.1405 23 38.0339 23ZM40.3539 14.648L39.2019 19.272H41.5699L40.4179 14.648H40.3539ZM47.5641 23H46.2041C45.9801 23 45.8681 22.888 45.8681 22.664V13.048C45.8681 12.824 45.9801 12.712 46.2041 12.712H50.0121C50.8441 12.712 51.4948 12.9413 51.9641 13.4C52.4335 13.8587 52.6681 14.504 52.6681 15.336V16.584C52.6681 17.7893 52.1935 18.5893 51.2441 18.984V19.048L52.9561 22.616C53.0521 22.872 52.9615 23 52.6841 23H51.3881C51.1961 23 51.0575 22.9787 50.9721 22.936C50.8868 22.8933 50.8175 22.8027 50.7641 22.664L49.1641 19.208H48.0921C47.9641 19.208 47.9001 19.2667 47.9001 19.384V22.664C47.9001 22.888 47.7881 23 47.5641 23ZM48.0761 17.576H49.6441C49.9855 17.576 50.2361 17.5067 50.3961 17.368C50.5561 17.2187 50.6361 16.984 50.6361 16.664V15.416C50.6361 15.0853 50.5561 14.8453 50.3961 14.696C50.2361 14.5467 49.9855 14.472 49.6441 14.472H48.0761C47.9588 14.472 47.9001 14.5307 47.9001 14.648V17.4C47.9001 17.5173 47.9588 17.576 48.0761 17.576ZM54.3621 20.376V20.056C54.3621 19.832 54.4741 19.72 54.6981 19.72H56.0581C56.2821 19.72 56.3941 19.832 56.3941 20.056V20.184C56.3941 20.5893 56.4741 20.8667 56.6341 21.016C56.7941 21.1653 57.0875 21.24 57.5141 21.24H58.2661C58.6821 21.24 58.9701 21.16 59.1301 21C59.3008 20.84 59.3861 20.5413 59.3861 20.104V19.912C59.3861 19.6027 59.2581 19.368 59.0021 19.208C58.7568 19.0373 58.4475 18.936 58.0741 18.904C57.7008 18.872 57.2955 18.8133 56.8581 18.728C56.4315 18.632 56.0315 18.5147 55.6581 18.376C55.2848 18.2267 54.9701 17.944 54.7141 17.528C54.4688 17.1013 54.3461 16.5573 54.3461 15.896V15.336C54.3461 14.504 54.5808 13.8587 55.0501 13.4C55.5195 12.9413 56.1701 12.712 57.0021 12.712H58.6021C59.4448 12.712 60.1008 12.9413 60.5701 13.4C61.0395 13.8587 61.2741 14.504 61.2741 15.336V15.64C61.2741 15.864 61.1621 15.976 60.9381 15.976H59.5781C59.3541 15.976 59.2421 15.864 59.2421 15.64V15.544C59.2421 15.128 59.1621 14.8453 59.0021 14.696C58.8421 14.5467 58.5488 14.472 58.1221 14.472H57.4981C57.0608 14.472 56.7621 14.5573 56.6021 14.728C56.4528 14.888 56.3781 15.208 56.3781 15.688V15.992C56.3781 16.4933 56.8155 16.7813 57.6901 16.856C58.5968 16.9307 59.4021 17.112 60.1061 17.4C60.4795 17.56 60.7888 17.848 61.0341 18.264C61.2901 18.6693 61.4181 19.192 61.4181 19.832V20.376C61.4181 21.208 61.1835 21.8533 60.7141 22.312C60.2448 22.7707 59.5941 23 58.7621 23H57.0181C56.1861 23 55.5355 22.7707 55.0661 22.312C54.5968 21.8533 54.3621 21.208 54.3621 20.376Z" fill="white"/>
</svg>
