<svg width="83" height="92" viewBox="0 0 83 92" fill="none" xmlns="http://www.w3.org/2000/svg">
<path d="M18.7424 46.8608V44.3399C18.7424 44.007 18.8849 43.7216 19.2175 43.5313L22.0208 41.7715C22.4959 41.4861 22.876 41.3434 23.2086 41.3434H25.6793C26.1069 41.3434 26.3445 41.5812 26.3445 42.0093V60.6067C26.3445 60.8445 26.2969 61.0348 26.2019 61.1299C26.1069 61.2251 25.9643 61.2726 25.7268 61.2726H23.0661C22.6384 61.2726 22.4009 61.0348 22.4009 60.6067V45.529L19.36 47.2413C18.9799 47.4316 18.7424 47.3364 18.7424 46.8608Z" fill="#FFCF3D"/>
<path d="M43.5442 41.3434H48.1054C48.533 41.3434 48.7706 41.5812 48.7706 42.0093V60.6067C48.7706 61.0348 48.533 61.2726 48.1054 61.2726H45.5872C45.1596 61.2726 44.922 61.0348 44.922 60.6067V45.9095H44.7795L41.6436 56.2784C41.5011 56.7065 41.2635 56.8967 40.8834 56.8967H38.2702C37.8901 56.8967 37.605 56.7065 37.51 56.2784L34.2791 45.9095H34.1366V60.6067C34.1366 60.8445 34.0891 61.0348 33.994 61.1299C33.899 61.2251 33.7565 61.2726 33.4714 61.2726H30.9532C30.5256 61.2726 30.288 61.0348 30.288 60.6067V42.0093C30.288 41.5812 30.5256 41.3434 30.9532 41.3434H35.562C35.847 41.3434 36.0371 41.4861 36.1321 41.7715L39.458 52.7111H39.6481L42.974 41.819C43.0215 41.4861 43.2116 41.3434 43.5442 41.3434Z" fill="#FFCF3D"/>
<path d="M61.1715 49.7147H65.3526C65.6377 49.7147 65.8277 49.7622 65.9228 49.9049C66.0178 50 66.0653 50.1903 66.0653 50.4757V52.188C66.0653 52.6636 65.8277 52.9014 65.3526 52.9014H61.1715V57.1822C61.1715 57.6578 60.9339 57.9432 60.4113 57.9432H58.6058C58.1306 57.9432 57.8456 57.7054 57.8456 57.1822V52.9014H53.6644C53.1893 52.9014 52.9517 52.6636 52.9517 52.188V50.4757C52.9517 50.1903 52.9992 50 53.0943 49.9049C53.1893 49.8098 53.3793 49.7147 53.6644 49.7147H57.8456V45.4815C57.8456 45.0058 58.0831 44.7205 58.6058 44.7205H60.4113C60.8864 44.7205 61.1715 44.9583 61.1715 45.4815V49.7147Z" fill="#FFCF3D"/>
<mask id="mask0" mask-type="alpha" maskUnits="userSpaceOnUse" x="0" y="9" width="83" height="83">
<circle cx="41.5" cy="50.5" r="41" stroke="white"/>
</mask>
<g mask="url(#mask0)">
<path d="M-1.26844 23.0385L84.7279 24.2443L86.5 103L-2.50001 67L-1.26844 23.0385Z" fill="#C4C4C4"/>
</g>
<path d="M7.44432 73.7681L7.05329 73.1327C6.95553 73.0349 7.00441 72.9372 7.10217 72.8883L11.5502 70.0533C11.6479 69.9555 11.7457 70.0044 11.8434 70.1022L12.2345 70.7376C12.2833 70.8354 12.2833 70.9331 12.1856 70.982L10.0349 72.3506C10.1815 72.3017 10.4259 72.3017 10.6703 72.3017L13.0654 72.3995C13.212 72.3995 13.3098 72.4484 13.4076 72.595L13.8475 73.2793C13.8475 73.3282 13.8964 73.3771 13.8475 73.4259C13.8475 73.4259 13.7986 73.4748 13.7008 73.4259L10.8659 73.2793L9.39948 76.4076C9.3506 76.4564 9.30172 76.5053 9.25284 76.5053C9.20397 76.5053 9.15509 76.4564 9.10621 76.4076L8.76405 75.8699C8.6663 75.6744 8.61742 75.5277 8.71517 75.43L9.79051 73.1327L8.95957 73.0349L7.68871 73.817C7.59096 73.8659 7.4932 73.8659 7.44432 73.7681Z" fill="white"/>
<path d="M10.3282 77.9718L9.79051 77.3363C9.74163 77.2386 9.74164 77.1897 9.83939 77.1408L14.7762 74.7457C14.8739 74.6969 15.0206 74.7457 15.0695 74.8435L15.8515 75.7233C15.9493 75.8211 15.9493 75.9188 15.9004 76.0655L12.821 80.5623C12.7721 80.6601 12.6744 80.6601 12.6255 80.6112L12.0878 79.9758C12.039 79.9269 12.039 79.878 12.039 79.8292C12.039 79.7803 12.0878 79.7314 12.1367 79.6825L12.7233 78.8516L11.599 77.5318L10.7192 77.9718C10.6703 78.0206 10.6215 78.0206 10.5726 78.0206C10.5237 78.0206 10.3771 78.0206 10.3282 77.9718ZM14.6784 75.9188L12.3322 77.0919L13.1632 78.0695L14.6784 75.9188Z" fill="white"/>
<path d="M13.7497 81.4421L17.2201 77.434C17.3179 77.3363 17.3668 77.3363 17.4645 77.434L19.0775 78.8027C19.4197 79.0959 19.6152 79.4381 19.6641 79.7802C19.713 80.1224 19.5663 80.4645 19.2731 80.8067L19.0287 81.1C18.6865 81.491 18.2955 81.5888 17.8556 81.3932C18.0022 81.5888 18.1 81.7843 18.1 81.9798C18.1 82.1753 18.0022 82.4197 17.8067 82.6152L17.4645 83.0062C17.1713 83.3484 16.8291 83.5439 16.487 83.5439C16.1448 83.5439 15.8026 83.4462 15.4605 83.104L13.7986 81.6376C13.652 81.5888 13.652 81.491 13.7497 81.4421ZM15.1183 81.6376L15.8515 82.2731C15.9982 82.4197 16.1448 82.4686 16.2426 82.4686C16.3403 82.4686 16.487 82.3708 16.5847 82.2731L16.9269 81.882C17.0246 81.7354 17.0735 81.6376 17.0735 81.491C17.0735 81.3932 16.9757 81.2466 16.8291 81.1L16.0959 80.4645C16.047 80.4157 15.9982 80.4157 15.9493 80.4645L15.0695 81.4421C15.0695 81.5888 15.0695 81.5888 15.1183 81.6376ZM16.7313 79.8291L17.4157 80.4157C17.5623 80.5623 17.7089 80.6112 17.8067 80.6112C17.9044 80.6112 18.0511 80.5623 18.1488 80.4157L18.3932 80.1713C18.491 80.0246 18.5888 79.9269 18.5399 79.7802C18.5399 79.6825 18.4421 79.5358 18.2955 79.4381L17.6112 78.8027C17.5623 78.7538 17.5134 78.7538 17.4645 78.8027L16.6825 79.6825C16.6825 79.7314 16.6825 79.7802 16.7313 79.8291Z" fill="white"/>
<path d="M19.5174 86.1346L18.882 85.7435C18.7843 85.6946 18.7843 85.5969 18.8331 85.4991L19.8596 83.935L20.3484 80.2202C20.3484 80.1713 20.3973 80.1224 20.4461 80.1224C20.495 80.1224 20.5439 80.1224 20.5928 80.1224L21.3748 80.6112C21.4726 80.6601 21.4726 80.7579 21.4726 80.9045L21.0327 83.1529L21.0816 83.2018L22.9879 81.8821C23.0856 81.7843 23.1834 81.7843 23.2811 81.8332L24.0632 82.322C24.1121 82.3709 24.1609 82.3709 24.1609 82.4198C24.1609 82.4686 24.161 82.5175 24.0632 82.5175L20.8372 84.4727L19.8107 86.0368C19.713 86.1834 19.6152 86.2323 19.5174 86.1346Z" fill="white"/>
<path d="M24.552 88.8718L23.7699 88.5785C23.6722 88.5296 23.6722 88.4807 23.721 88.383L26.9471 83.9839C27.0448 83.8861 27.1426 83.8372 27.2403 83.8861L28.3157 84.326C28.4623 84.3749 28.5112 84.4727 28.5112 84.6193L27.8269 90.0449C27.8269 90.1915 27.778 90.2404 27.6802 90.1915L26.8982 89.8982C26.8493 89.8982 26.8004 89.8494 26.8004 89.8005C26.8004 89.7516 26.8004 89.7027 26.8004 89.6538L26.9471 88.6763L25.334 88.0408L24.7475 88.8718C24.6986 88.9207 24.6986 88.9695 24.6497 88.9695C24.6497 88.8718 24.6009 88.8718 24.552 88.8718ZM27.4358 85.0592L25.9206 87.2099L27.1426 87.6987L27.4358 85.0592Z" fill="white"/>
<path d="M30.0264 90.7781L29.2933 90.5825C29.1955 90.5337 29.1466 90.4848 29.1466 90.3381L30.3686 85.2058C30.4175 85.1081 30.4664 85.0592 30.613 85.0592L32.6659 85.548C33.1058 85.6458 33.448 85.8413 33.6435 86.1834C33.839 86.4767 33.8879 86.8677 33.7901 87.3076L33.6435 87.9919C33.4969 88.6274 33.1547 89.0184 32.5682 89.1162V89.165L33.0081 91.3157C33.0081 91.4624 32.9592 91.5112 32.8126 91.4624L32.1282 91.3157C32.0305 91.3157 31.9327 91.2668 31.9327 91.218C31.8838 91.1691 31.8838 91.1202 31.835 91.0224L31.4439 88.9695L30.8574 88.8229C30.8085 88.8229 30.7596 88.8229 30.7108 88.8718L30.2708 90.6314C30.222 90.7292 30.1242 90.7781 30.0264 90.7781ZM30.9551 87.8942L31.7861 88.0897C31.9816 88.1386 32.1282 88.1386 32.226 88.0897C32.3238 88.0408 32.4215 87.9431 32.4215 87.7476L32.5682 87.0632C32.617 86.8677 32.617 86.77 32.5193 86.6233C32.4704 86.5256 32.3238 86.4278 32.1282 86.4278L31.2973 86.2323C31.2484 86.2323 31.1995 86.2323 31.1995 86.2812L30.8574 87.7476C30.9063 87.8453 30.9063 87.8942 30.9551 87.8942Z" fill="white"/>
<path d="M37.3583 91.9511L34.4744 91.6579C34.3767 91.6579 34.2789 91.5601 34.3278 91.4623L34.8655 86.1834C34.8655 86.0368 34.9632 85.9879 35.061 86.0368L37.9449 86.33C38.0426 86.33 38.0915 86.4278 38.0915 86.5256L37.9937 87.1121C37.9937 87.2587 37.896 87.3076 37.7982 87.2587L35.9897 87.1121C35.9408 87.1121 35.8919 87.1121 35.8919 87.2099L35.7942 88.3341C35.7942 88.383 35.8431 88.4318 35.8919 88.4318L37.4072 88.5785C37.5538 88.5785 37.6027 88.6762 37.5538 88.774L37.5049 89.3605C37.5049 89.5072 37.4072 89.5561 37.3094 89.5072L35.7942 89.3605C35.7453 89.3605 35.6964 89.3605 35.6964 89.4583L35.5987 90.6803C35.5987 90.7292 35.6475 90.778 35.6964 90.778L37.5049 90.9735C37.6027 90.9735 37.6516 91.0713 37.6516 91.1691L37.6027 91.7556C37.5049 91.9022 37.4561 91.9511 37.3583 91.9511Z" fill="white"/>
<path d="M39.9 92H39.1668C39.0202 92 38.9713 91.9511 38.9713 91.8045L38.7758 86.5745C38.7758 86.4278 38.8247 86.3789 38.9713 86.3789H39.6067C39.7534 86.3789 39.8022 86.4278 39.8511 86.4767L41.7574 89.7516H41.8063L41.7085 86.4767C41.7085 86.3301 41.7574 86.2812 41.904 86.2812L42.6372 86.2323C42.7839 86.2323 42.8328 86.2812 42.8328 86.4278L43.0283 91.7068C43.0283 91.8534 42.9794 91.9023 42.8328 91.9023H42.1973C42.0507 91.9023 41.9529 91.8534 41.904 91.7556L40.0466 88.5296H39.9978L40.0955 91.8045C40.0955 91.9511 40.0466 92 39.9 92Z" fill="white"/>
<path d="M45.2767 91.5601L44.4458 91.7067C44.348 91.7067 44.2991 91.6578 44.2991 91.5601L44.6902 86.1345C44.6902 85.9879 44.7879 85.939 44.9346 85.8901L46.1077 85.6946C46.2543 85.6457 46.3521 85.6946 46.4009 85.8412L48.7471 90.778C48.796 90.8758 48.796 90.9735 48.6982 90.9735L47.8673 91.1202C47.8184 91.1202 47.7695 91.1202 47.7207 91.1202C47.6718 91.1202 47.6718 91.0713 47.6229 90.9735L47.183 90.0448L45.4722 90.3381L45.4233 91.3157C45.4233 91.3646 45.4234 91.4135 45.3745 91.4623C45.3745 91.5601 45.3256 91.5601 45.2767 91.5601ZM45.6677 86.8188L45.5211 89.4583L46.792 89.2139L45.6677 86.8188Z" fill="white"/>
<path d="M15.736 23H14.376C14.152 23 14.04 22.888 14.04 22.664V13.048C14.04 12.824 14.152 12.712 14.376 12.712H18.28C19.112 12.712 19.7573 12.9413 20.216 13.4C20.6747 13.848 20.904 14.488 20.904 15.32V16.856C20.904 17.688 20.6747 18.3333 20.216 18.792C19.7573 19.24 19.112 19.464 18.28 19.464H16.264C16.136 19.464 16.072 19.5227 16.072 19.64V22.664C16.072 22.888 15.96 23 15.736 23ZM16.248 17.688H17.944C18.2853 17.688 18.5253 17.6187 18.664 17.48C18.8027 17.3307 18.872 17.0907 18.872 16.76V15.416C18.872 15.0747 18.8027 14.8347 18.664 14.696C18.5253 14.5467 18.2853 14.472 17.944 14.472H16.248C16.1307 14.472 16.072 14.5307 16.072 14.648V17.512C16.072 17.6293 16.1307 17.688 16.248 17.688ZM28.1244 23H22.8604C22.6364 23 22.5244 22.888 22.5244 22.664V13.048C22.5244 12.824 22.6364 12.712 22.8604 12.712H24.2204C24.4444 12.712 24.5564 12.824 24.5564 13.048V21.048C24.5564 21.1653 24.6204 21.224 24.7484 21.224H28.1244C28.3377 21.224 28.4444 21.3413 28.4444 21.576V22.664C28.4444 22.888 28.3377 23 28.1244 23ZM30.7839 23H29.2479C29.0559 23 28.9919 22.888 29.0559 22.664L31.5839 13.048C31.6585 12.824 31.8185 12.712 32.0639 12.712H34.1919C34.4585 12.712 34.6185 12.824 34.6719 13.048L37.1999 22.664C37.2639 22.888 37.1999 23 37.0079 23H35.4719C35.3545 23 35.2745 22.9787 35.2319 22.936C35.1892 22.8827 35.1572 22.792 35.1359 22.664L34.6879 20.904H31.5679L31.1199 22.664C31.0985 22.792 31.0612 22.8827 31.0079 22.936C30.9652 22.9787 30.8905 23 30.7839 23ZM33.1039 14.648L31.9519 19.272H34.3199L33.1679 14.648H33.1039ZM42.3941 23H41.0341C40.8101 23 40.6981 22.888 40.6981 22.664V19.24L37.7701 13.064C37.7275 12.968 37.7275 12.888 37.7701 12.824C37.8235 12.7493 37.8981 12.712 37.9941 12.712H39.6901C39.8608 12.712 39.9888 12.824 40.0741 13.048L41.6741 16.936H41.7861L43.3541 13.048C43.4288 12.824 43.5568 12.712 43.7381 12.712H45.4341C45.5408 12.712 45.6155 12.744 45.6581 12.808C45.7115 12.872 45.7115 12.9573 45.6581 13.064L42.7301 19.24V22.664C42.7301 22.888 42.6181 23 42.3941 23ZM52.4518 23H47.2198C46.9958 23 46.8838 22.888 46.8838 22.664V13.048C46.8838 12.824 46.9958 12.712 47.2198 12.712H52.4518C52.6651 12.712 52.7718 12.824 52.7718 13.048V14.136C52.7718 14.36 52.6651 14.472 52.4518 14.472H49.1078C48.9798 14.472 48.9158 14.5307 48.9158 14.648V16.728C48.9158 16.8453 48.9798 16.904 49.1078 16.904H51.8438C52.0678 16.904 52.1798 17.016 52.1798 17.24V18.328C52.1798 18.552 52.0678 18.664 51.8438 18.664H49.1078C48.9798 18.664 48.9158 18.7227 48.9158 18.84V21.064C48.9158 21.1813 48.9798 21.24 49.1078 21.24H52.4518C52.6651 21.24 52.7718 21.352 52.7718 21.576V22.664C52.7718 22.888 52.6651 23 52.4518 23ZM56.236 23H54.876C54.652 23 54.54 22.888 54.54 22.664V13.048C54.54 12.824 54.652 12.712 54.876 12.712H58.684C59.516 12.712 60.1667 12.9413 60.636 13.4C61.1053 13.8587 61.34 14.504 61.34 15.336V16.584C61.34 17.7893 60.8653 18.5893 59.916 18.984V19.048L61.628 22.616C61.724 22.872 61.6333 23 61.356 23H60.06C59.868 23 59.7293 22.9787 59.644 22.936C59.5587 22.8933 59.4893 22.8027 59.436 22.664L57.836 19.208H56.764C56.636 19.208 56.572 19.2667 56.572 19.384V22.664C56.572 22.888 56.46 23 56.236 23ZM56.748 17.576H58.316C58.6573 17.576 58.908 17.5067 59.068 17.368C59.228 17.2187 59.308 16.984 59.308 16.664V15.416C59.308 15.0853 59.228 14.8453 59.068 14.696C58.908 14.5467 58.6573 14.472 58.316 14.472H56.748C56.6307 14.472 56.572 14.5307 56.572 14.648V17.4C56.572 17.5173 56.6307 17.576 56.748 17.576ZM63.034 20.376V20.056C63.034 19.832 63.146 19.72 63.37 19.72H64.73C64.954 19.72 65.066 19.832 65.066 20.056V20.184C65.066 20.5893 65.146 20.8667 65.306 21.016C65.466 21.1653 65.7593 21.24 66.186 21.24H66.938C67.354 21.24 67.642 21.16 67.802 21C67.9727 20.84 68.058 20.5413 68.058 20.104V19.912C68.058 19.6027 67.93 19.368 67.674 19.208C67.4287 19.0373 67.1193 18.936 66.746 18.904C66.3727 18.872 65.9673 18.8133 65.53 18.728C65.1033 18.632 64.7033 18.5147 64.33 18.376C63.9567 18.2267 63.642 17.944 63.386 17.528C63.1407 17.1013 63.018 16.5573 63.018 15.896V15.336C63.018 14.504 63.2527 13.8587 63.722 13.4C64.1913 12.9413 64.842 12.712 65.674 12.712H67.274C68.1167 12.712 68.7727 12.9413 69.242 13.4C69.7113 13.8587 69.946 14.504 69.946 15.336V15.64C69.946 15.864 69.834 15.976 69.61 15.976H68.25C68.026 15.976 67.914 15.864 67.914 15.64V15.544C67.914 15.128 67.834 14.8453 67.674 14.696C67.514 14.5467 67.2207 14.472 66.794 14.472H66.17C65.7327 14.472 65.434 14.5573 65.274 14.728C65.1247 14.888 65.05 15.208 65.05 15.688V15.992C65.05 16.4933 65.4873 16.7813 66.362 16.856C67.2687 16.9307 68.074 17.112 68.778 17.4C69.1513 17.56 69.4607 17.848 69.706 18.264C69.962 18.6693 70.09 19.192 70.09 19.832V20.376C70.09 21.208 69.8553 21.8533 69.386 22.312C68.9167 22.7707 68.266 23 67.434 23H65.69C64.858 23 64.2073 22.7707 63.738 22.312C63.2687 21.8533 63.034 21.208 63.034 20.376Z" fill="white"/>
</svg>
