<svg width="83" height="91" viewBox="0 0 83 91" fill="none" xmlns="http://www.w3.org/2000/svg">
<path d="M32.0975 65.4668H27.8225C25.59 65.4668 23.8325 64.8463 22.5975 63.6531C21.3625 62.4598 20.745 60.7415 20.745 58.4505V44.8475C20.745 42.6042 21.3625 40.8382 22.5975 39.6449C23.8325 38.4517 25.5425 37.8312 27.8225 37.8312H32.0975C34.33 37.8312 36.04 38.4517 37.275 39.6449C38.51 40.8859 39.1275 42.6042 39.1275 44.7997V58.4028C39.1275 60.6461 38.51 62.3644 37.275 63.5576C36.04 64.894 34.33 65.4668 32.0975 65.4668ZM28.725 60.7415H31.2425C32.145 60.7415 32.81 60.5506 33.1425 60.1688C33.5225 59.7869 33.7125 59.1187 33.7125 58.2118V45.1339C33.7125 44.227 33.5225 43.5588 33.1425 43.1769C32.7625 42.7951 32.145 42.6042 31.2425 42.6042H28.725C27.8225 42.6042 27.1575 42.7951 26.825 43.1769C26.445 43.5588 26.255 44.227 26.255 45.1339V58.2596C26.255 59.1664 26.445 59.8347 26.825 60.2165C27.205 60.5506 27.8225 60.7415 28.725 60.7415Z" fill="#FFCF3D"/>
<path d="M55.2775 65.4668H50.765C48.485 65.4668 46.7275 64.894 45.54 63.7485C44.305 62.603 43.735 60.9325 43.735 58.7369V56.78C43.735 54.1548 44.685 52.4365 46.5375 51.5774C44.6375 50.8137 43.735 49.0477 43.735 46.3271V44.4656C43.735 42.2701 44.3525 40.5995 45.54 39.5017C46.7275 38.4039 48.485 37.8312 50.765 37.8312H55.2775C57.51 37.8312 59.2675 38.4039 60.455 39.5017C61.6425 40.5995 62.26 42.2701 62.26 44.4656V46.3271C62.26 47.6635 62.0225 48.8091 61.5 49.7637C60.9775 50.7183 60.3125 51.291 59.505 51.5774C61.3575 52.3411 62.26 54.0593 62.26 56.8277V58.7369C62.26 60.9325 61.6425 62.603 60.455 63.7485C59.2675 64.894 57.5575 65.4668 55.2775 65.4668ZM51.5725 49.4773H54.47C55.3725 49.4773 56.0375 49.2386 56.37 48.8091C56.75 48.3795 56.94 47.7113 56.94 46.8044V44.9907C56.94 44.0838 56.75 43.4633 56.37 43.0815C55.99 42.6996 55.3725 42.5087 54.47 42.5087H51.5725C50.67 42.5087 50.005 42.6996 49.6725 43.0815C49.2925 43.4633 49.1025 44.0838 49.1025 44.9907V46.8044C49.1025 47.7113 49.2925 48.3795 49.6725 48.8091C50.005 49.2386 50.67 49.4773 51.5725 49.4773ZM51.5725 60.7893H54.47C55.3725 60.7893 56.0375 60.5983 56.37 60.2165C56.75 59.8347 56.94 59.2142 56.94 58.3073V56.3504C56.94 55.4435 56.75 54.7753 56.37 54.3457C55.99 53.9162 55.3725 53.6775 54.47 53.6775H51.5725C50.67 53.6775 50.005 53.9162 49.6725 54.3457C49.2925 54.7753 49.1025 55.4435 49.1025 56.3504V58.3073C49.1025 59.2142 49.2925 59.8347 49.6725 60.2165C50.005 60.5983 50.67 60.7893 51.5725 60.7893Z" fill="#FFCF3D"/>
<path d="M24.216 23H22.52C21.6773 23 21.0267 22.776 20.568 22.328C20.1093 21.88 19.88 21.2347 19.88 20.392V15.32C19.88 14.4773 20.1093 13.832 20.568 13.384C21.0267 12.936 21.6773 12.712 22.52 12.712H24.216C25.048 12.712 25.6933 12.9413 26.152 13.4C26.6107 13.848 26.84 14.488 26.84 15.32V15.8C26.84 16.0347 26.728 16.152 26.504 16.152H25.144C24.92 16.152 24.808 16.0347 24.808 15.8V15.416C24.808 15.0747 24.7387 14.8347 24.6 14.696C24.4613 14.5467 24.2213 14.472 23.88 14.472H22.84C22.5093 14.472 22.2693 14.5467 22.12 14.696C21.9813 14.8347 21.912 15.0747 21.912 15.416V20.296C21.912 20.6373 21.9813 20.8827 22.12 21.032C22.2693 21.1707 22.5093 21.24 22.84 21.24H23.88C24.2213 21.24 24.4613 21.1707 24.6 21.032C24.7387 20.8827 24.808 20.6373 24.808 20.296V19.288C24.808 19.1707 24.7493 19.112 24.632 19.112H23.672C23.448 19.112 23.336 19 23.336 18.776V17.688C23.336 17.464 23.448 17.352 23.672 17.352H26.472C26.7173 17.352 26.84 17.4747 26.84 17.72V20.392C26.84 21.224 26.6107 21.8693 26.152 22.328C25.6933 22.776 25.048 23 24.216 23ZM29.8307 23H28.2948C28.1028 23 28.0388 22.888 28.1028 22.664L30.6308 13.048C30.7054 12.824 30.8654 12.712 31.1108 12.712H33.2388C33.5054 12.712 33.6654 12.824 33.7188 13.048L36.2468 22.664C36.3108 22.888 36.2468 23 36.0548 23H34.5188C34.4014 23 34.3214 22.9787 34.2788 22.936C34.2361 22.8827 34.2041 22.792 34.1828 22.664L33.7348 20.904H30.6148L30.1668 22.664C30.1454 22.792 30.1081 22.8827 30.0548 22.936C30.0121 22.9787 29.9374 23 29.8307 23ZM32.1508 14.648L30.9988 19.272H33.3668L32.2148 14.648H32.1508ZM44.497 12.712H46.865C47.089 12.712 47.201 12.824 47.201 13.048V22.664C47.201 22.888 47.089 23 46.865 23H45.553C45.329 23 45.217 22.888 45.217 22.664V15.08H45.153L43.521 20.44C43.457 20.6533 43.3237 20.76 43.121 20.76H41.777C41.5743 20.76 41.441 20.6533 41.377 20.44L39.713 15.064H39.649V22.664C39.649 22.792 39.6277 22.8827 39.585 22.936C39.5423 22.9787 39.4517 23 39.313 23H38.001C37.777 23 37.665 22.888 37.665 22.664V13.048C37.665 12.824 37.777 12.712 38.001 12.712H40.385C40.5343 12.712 40.6357 12.7867 40.689 12.936L42.385 18.584H42.481L44.193 12.936C44.225 12.7867 44.3263 12.712 44.497 12.712ZM54.8424 23H49.6104C49.3864 23 49.2744 22.888 49.2744 22.664V13.048C49.2744 12.824 49.3864 12.712 49.6104 12.712H54.8424C55.0557 12.712 55.1624 12.824 55.1624 13.048V14.136C55.1624 14.36 55.0557 14.472 54.8424 14.472H51.4984C51.3704 14.472 51.3064 14.5307 51.3064 14.648V16.728C51.3064 16.8453 51.3704 16.904 51.4984 16.904H54.2344C54.4584 16.904 54.5704 17.016 54.5704 17.24V18.328C54.5704 18.552 54.4584 18.664 54.2344 18.664H51.4984C51.3704 18.664 51.3064 18.7227 51.3064 18.84V21.064C51.3064 21.1813 51.3704 21.24 51.4984 21.24H54.8424C55.0557 21.24 55.1624 21.352 55.1624 21.576V22.664C55.1624 22.888 55.0557 23 54.8424 23ZM56.6746 20.376V20.056C56.6746 19.832 56.7866 19.72 57.0106 19.72H58.3706C58.5946 19.72 58.7066 19.832 58.7066 20.056V20.184C58.7066 20.5893 58.7866 20.8667 58.9466 21.016C59.1066 21.1653 59.4 21.24 59.8266 21.24H60.5786C60.9946 21.24 61.2826 21.16 61.4426 21C61.6133 20.84 61.6986 20.5413 61.6986 20.104V19.912C61.6986 19.6027 61.5706 19.368 61.3146 19.208C61.0693 19.0373 60.76 18.936 60.3866 18.904C60.0133 18.872 59.608 18.8133 59.1706 18.728C58.744 18.632 58.344 18.5147 57.9706 18.376C57.5973 18.2267 57.2826 17.944 57.0266 17.528C56.7813 17.1013 56.6586 16.5573 56.6586 15.896V15.336C56.6586 14.504 56.8933 13.8587 57.3626 13.4C57.832 12.9413 58.4826 12.712 59.3146 12.712H60.9146C61.7573 12.712 62.4133 12.9413 62.8826 13.4C63.352 13.8587 63.5866 14.504 63.5866 15.336V15.64C63.5866 15.864 63.4746 15.976 63.2506 15.976H61.8906C61.6666 15.976 61.5546 15.864 61.5546 15.64V15.544C61.5546 15.128 61.4746 14.8453 61.3146 14.696C61.1546 14.5467 60.8613 14.472 60.4346 14.472H59.8106C59.3733 14.472 59.0746 14.5573 58.9146 14.728C58.7653 14.888 58.6906 15.208 58.6906 15.688V15.992C58.6906 16.4933 59.128 16.7813 60.0026 16.856C60.9093 16.9307 61.7146 17.112 62.4186 17.4C62.792 17.56 63.1013 17.848 63.3466 18.264C63.6026 18.6693 63.7306 19.192 63.7306 19.832V20.376C63.7306 21.208 63.496 21.8533 63.0266 22.312C62.5573 22.7707 61.9066 23 61.0746 23H59.3306C58.4986 23 57.848 22.7707 57.3786 22.312C56.9093 21.8533 56.6746 21.208 56.6746 20.376Z" fill="white"/>
<mask id="mask0" mask-type="alpha" maskUnits="userSpaceOnUse" x="0" y="8" width="83" height="83">
<circle cx="41.5" cy="49.5" r="41" stroke="white"/>
</mask>
<g mask="url(#mask0)">
<path d="M-1.26844 21.0385L84.7279 20.2443L86.5 102L-2.50001 66L-1.26844 21.0385Z" fill="#C4C4C4"/>
</g>
<path d="M7.44432 72.7681L7.05329 72.1327C6.95553 72.0349 7.00441 71.9372 7.10217 71.8883L11.5502 69.0533C11.6479 68.9555 11.7457 69.0044 11.8434 69.1022L12.2345 69.7376C12.2833 69.8354 12.2833 69.9331 12.1856 69.982L10.0349 71.3506C10.1815 71.3017 10.4259 71.3017 10.6703 71.3017L13.0654 71.3995C13.212 71.3995 13.3098 71.4484 13.4076 71.595L13.8475 72.2793C13.8475 72.3282 13.8964 72.3771 13.8475 72.4259C13.8475 72.4259 13.7986 72.4748 13.7008 72.4259L10.8659 72.2793L9.39948 75.4076C9.3506 75.4564 9.30172 75.5053 9.25284 75.5053C9.20397 75.5053 9.15509 75.4564 9.10621 75.4076L8.76405 74.8699C8.6663 74.6744 8.61742 74.5277 8.71517 74.43L9.79051 72.1327L8.95957 72.0349L7.68871 72.817C7.59096 72.8659 7.4932 72.8659 7.44432 72.7681Z" fill="white"/>
<path d="M10.3282 76.9718L9.79051 76.3363C9.74163 76.2386 9.74164 76.1897 9.83939 76.1408L14.7762 73.7457C14.8739 73.6969 15.0206 73.7457 15.0695 73.8435L15.8515 74.7233C15.9493 74.8211 15.9493 74.9188 15.9004 75.0655L12.821 79.5623C12.7721 79.6601 12.6744 79.6601 12.6255 79.6112L12.0878 78.9758C12.039 78.9269 12.039 78.878 12.039 78.8292C12.039 78.7803 12.0878 78.7314 12.1367 78.6825L12.7233 77.8516L11.599 76.5318L10.7192 76.9718C10.6703 77.0206 10.6215 77.0206 10.5726 77.0206C10.5237 77.0206 10.3771 77.0206 10.3282 76.9718ZM14.6784 74.9188L12.3322 76.0919L13.1632 77.0695L14.6784 74.9188Z" fill="white"/>
<path d="M13.7497 80.4421L17.2201 76.434C17.3179 76.3363 17.3668 76.3363 17.4645 76.434L19.0775 77.8027C19.4197 78.0959 19.6152 78.4381 19.6641 78.7802C19.713 79.1224 19.5663 79.4645 19.2731 79.8067L19.0287 80.1C18.6865 80.491 18.2955 80.5888 17.8556 80.3932C18.0022 80.5888 18.1 80.7843 18.1 80.9798C18.1 81.1753 18.0022 81.4197 17.8067 81.6152L17.4645 82.0062C17.1713 82.3484 16.8291 82.5439 16.487 82.5439C16.1448 82.5439 15.8026 82.4462 15.4605 82.104L13.7986 80.6376C13.652 80.5888 13.652 80.491 13.7497 80.4421ZM15.1183 80.6376L15.8515 81.2731C15.9982 81.4197 16.1448 81.4686 16.2426 81.4686C16.3403 81.4686 16.487 81.3708 16.5847 81.2731L16.9269 80.882C17.0246 80.7354 17.0735 80.6376 17.0735 80.491C17.0735 80.3932 16.9757 80.2466 16.8291 80.1L16.0959 79.4645C16.047 79.4157 15.9982 79.4157 15.9493 79.4645L15.0695 80.4421C15.0695 80.5888 15.0695 80.5888 15.1183 80.6376ZM16.7313 78.8291L17.4157 79.4157C17.5623 79.5623 17.7089 79.6112 17.8067 79.6112C17.9044 79.6112 18.0511 79.5623 18.1488 79.4157L18.3932 79.1713C18.491 79.0246 18.5888 78.9269 18.5399 78.7802C18.5399 78.6825 18.4421 78.5358 18.2955 78.4381L17.6112 77.8027C17.5623 77.7538 17.5134 77.7538 17.4645 77.8027L16.6825 78.6825C16.6825 78.7314 16.6825 78.7802 16.7313 78.8291Z" fill="white"/>
<path d="M19.5174 85.1346L18.882 84.7435C18.7843 84.6946 18.7843 84.5969 18.8331 84.4991L19.8596 82.935L20.3484 79.2202C20.3484 79.1713 20.3973 79.1224 20.4461 79.1224C20.495 79.1224 20.5439 79.1224 20.5928 79.1224L21.3748 79.6112C21.4726 79.6601 21.4726 79.7579 21.4726 79.9045L21.0327 82.1529L21.0816 82.2018L22.9879 80.8821C23.0856 80.7843 23.1834 80.7843 23.2811 80.8332L24.0632 81.322C24.1121 81.3709 24.1609 81.3709 24.1609 81.4198C24.1609 81.4686 24.161 81.5175 24.0632 81.5175L20.8372 83.4727L19.8107 85.0368C19.713 85.1834 19.6152 85.2323 19.5174 85.1346Z" fill="white"/>
<path d="M24.552 87.8718L23.7699 87.5785C23.6722 87.5296 23.6722 87.4807 23.721 87.383L26.9471 82.9839C27.0448 82.8861 27.1426 82.8372 27.2403 82.8861L28.3157 83.326C28.4623 83.3749 28.5112 83.4727 28.5112 83.6193L27.8269 89.0449C27.8269 89.1915 27.778 89.2404 27.6802 89.1915L26.8982 88.8982C26.8493 88.8982 26.8004 88.8494 26.8004 88.8005C26.8004 88.7516 26.8004 88.7027 26.8004 88.6538L26.9471 87.6763L25.334 87.0408L24.7475 87.8718C24.6986 87.9207 24.6986 87.9695 24.6497 87.9695C24.6497 87.8718 24.6009 87.8718 24.552 87.8718ZM27.4358 84.0592L25.9206 86.2099L27.1426 86.6987L27.4358 84.0592Z" fill="white"/>
<path d="M30.0264 89.7781L29.2933 89.5825C29.1955 89.5337 29.1466 89.4848 29.1466 89.3381L30.3686 84.2058C30.4175 84.1081 30.4664 84.0592 30.613 84.0592L32.6659 84.548C33.1058 84.6458 33.448 84.8413 33.6435 85.1834C33.839 85.4767 33.8879 85.8677 33.7901 86.3076L33.6435 86.9919C33.4969 87.6274 33.1547 88.0184 32.5682 88.1162V88.165L33.0081 90.3157C33.0081 90.4624 32.9592 90.5112 32.8126 90.4624L32.1282 90.3157C32.0305 90.3157 31.9327 90.2668 31.9327 90.218C31.8838 90.1691 31.8838 90.1202 31.835 90.0224L31.4439 87.9695L30.8574 87.8229C30.8085 87.8229 30.7596 87.8229 30.7108 87.8718L30.2708 89.6314C30.222 89.7292 30.1242 89.7781 30.0264 89.7781ZM30.9551 86.8942L31.7861 87.0897C31.9816 87.1386 32.1282 87.1386 32.226 87.0897C32.3238 87.0408 32.4215 86.9431 32.4215 86.7476L32.5682 86.0632C32.617 85.8677 32.617 85.77 32.5193 85.6233C32.4704 85.5256 32.3238 85.4278 32.1282 85.4278L31.2973 85.2323C31.2484 85.2323 31.1995 85.2323 31.1995 85.2812L30.8574 86.7476C30.9063 86.8453 30.9063 86.8942 30.9551 86.8942Z" fill="white"/>
<path d="M37.3583 90.9511L34.4744 90.6579C34.3767 90.6579 34.2789 90.5601 34.3278 90.4623L34.8655 85.1834C34.8655 85.0368 34.9632 84.9879 35.061 85.0368L37.9449 85.33C38.0426 85.33 38.0915 85.4278 38.0915 85.5256L37.9937 86.1121C37.9937 86.2587 37.896 86.3076 37.7982 86.2587L35.9897 86.1121C35.9408 86.1121 35.8919 86.1121 35.8919 86.2099L35.7942 87.3341C35.7942 87.383 35.8431 87.4318 35.8919 87.4318L37.4072 87.5785C37.5538 87.5785 37.6027 87.6762 37.5538 87.774L37.5049 88.3605C37.5049 88.5072 37.4072 88.5561 37.3094 88.5072L35.7942 88.3605C35.7453 88.3605 35.6964 88.3605 35.6964 88.4583L35.5987 89.6803C35.5987 89.7292 35.6475 89.778 35.6964 89.778L37.5049 89.9735C37.6027 89.9735 37.6516 90.0713 37.6516 90.1691L37.6027 90.7556C37.5049 90.9022 37.4561 90.9511 37.3583 90.9511Z" fill="white"/>
<path d="M39.9 91H39.1668C39.0202 91 38.9713 90.9511 38.9713 90.8045L38.7758 85.5745C38.7758 85.4278 38.8247 85.3789 38.9713 85.3789H39.6067C39.7534 85.3789 39.8022 85.4278 39.8511 85.4767L41.7574 88.7516H41.8063L41.7085 85.4767C41.7085 85.3301 41.7574 85.2812 41.904 85.2812L42.6372 85.2323C42.7839 85.2323 42.8328 85.2812 42.8328 85.4278L43.0283 90.7068C43.0283 90.8534 42.9794 90.9023 42.8328 90.9023H42.1973C42.0507 90.9023 41.9529 90.8534 41.904 90.7556L40.0466 87.5296H39.9978L40.0955 90.8045C40.0955 90.9511 40.0466 91 39.9 91Z" fill="white"/>
<path d="M45.2767 90.5601L44.4458 90.7067C44.348 90.7067 44.2991 90.6578 44.2991 90.5601L44.6902 85.1345C44.6902 84.9879 44.7879 84.939 44.9346 84.8901L46.1077 84.6946C46.2543 84.6457 46.3521 84.6946 46.4009 84.8412L48.7471 89.778C48.796 89.8758 48.796 89.9735 48.6982 89.9735L47.8673 90.1202C47.8184 90.1202 47.7695 90.1202 47.7207 90.1202C47.6718 90.1202 47.6718 90.0713 47.6229 89.9735L47.183 89.0448L45.4722 89.3381L45.4233 90.3157C45.4233 90.3646 45.4234 90.4135 45.3745 90.4623C45.3745 90.5601 45.3256 90.5601 45.2767 90.5601ZM45.6677 85.8188L45.5211 88.4583L46.792 88.2139L45.6677 85.8188Z" fill="white"/>
</svg>
