<svg
  width="86"
  height="47"
  viewBox="0 0 86 47"
  fill="none"
  xmlns="http://www.w3.org/2000/svg"
>
  <g clipPath="url(#clip0)">
    <path
      d="M0.43688 44.5363L0 40.3618H0.688L0.8772 42.2366L0.95288 43.2893C0.95288 43.3684 0.96492 43.5266 0.97524 43.7657C1.05436 43.4974 1.12144 43.2927 1.17648 43.1499C1.23152 43.0072 1.31924 42.8059 1.43964 42.5393L2.4338 40.3618H3.2078L3.3454 42.4482C3.36604 42.767 3.37923 43.1901 3.38496 43.7175C3.51568 43.3667 3.72896 42.8799 4.0248 42.2573L4.92092 40.3653H5.63128L3.58792 44.5363H2.84832L2.6918 42.087C2.68148 41.9356 2.67288 41.6398 2.66772 41.1995C2.56108 41.4792 2.4338 41.782 2.28588 42.1076L1.18336 44.5363H0.43688Z"
      fill="white"
      fill-opacity="0.9"
    />
    <path
      d="M5.4541 44.5362L6.6581 38.7759H7.36846L6.9075 40.9878C7.12297 40.7662 7.37198 40.5799 7.64538 40.4357C7.86342 40.3247 8.10422 40.2659 8.34886 40.2637C8.64289 40.2457 8.93234 40.3432 9.15553 40.5354C9.2515 40.6289 9.32668 40.7415 9.37617 40.866C9.42567 40.9905 9.44836 41.124 9.44277 41.2578C9.42395 41.5305 9.38136 41.801 9.31549 42.0662L8.79949 44.531H8.08398L8.61374 42.0043C8.66772 41.7779 8.70566 41.548 8.72726 41.3163C8.72946 41.2535 8.71799 41.191 8.69363 41.1331C8.66928 41.0752 8.63263 41.0233 8.58622 40.9809C8.47149 40.888 8.32587 40.8419 8.17858 40.8519C7.91716 40.8547 7.66106 40.926 7.43588 41.0588C7.21071 41.1917 7.02435 41.3813 6.89546 41.6087C6.72266 41.9683 6.60163 42.3504 6.53598 42.7439L6.16274 44.5362H5.4541Z"
      fill="white"
      fill-opacity="0.9"
    />
    <path
      d="M12.9944 43.1171L13.6824 43.1876C13.5532 43.5738 13.3141 43.9139 12.9944 44.1663C12.6405 44.4735 12.1851 44.6383 11.7165 44.6289C11.4161 44.6342 11.1196 44.5606 10.8565 44.4157C10.6002 44.2741 10.394 44.0566 10.2665 43.793C10.1284 43.502 10.0595 43.1829 10.0653 42.8608C10.0664 42.4004 10.1741 41.9465 10.38 41.5347C10.5578 41.1453 10.8422 40.8143 11.2005 40.5801C11.5264 40.3749 11.9041 40.2669 12.2892 40.2687C12.5092 40.2587 12.7288 40.2947 12.934 40.3743C13.1393 40.454 13.3256 40.5756 13.4812 40.7314C13.6351 40.9027 13.7537 41.1027 13.8302 41.32C13.9066 41.5372 13.9394 41.7674 13.9267 41.9973C13.9258 42.2078 13.9074 42.4178 13.8716 42.6251H10.8135C10.8038 42.6981 10.7986 42.7717 10.798 42.8453C10.776 43.1661 10.8714 43.484 11.0663 43.7397C11.1459 43.8372 11.2465 43.9156 11.3605 43.9689C11.4746 44.0222 11.5992 44.0491 11.7251 44.0476C11.9835 44.0429 12.2343 43.9595 12.444 43.8085C12.6903 43.6358 12.8814 43.3957 12.9944 43.1171ZM10.9304 42.0851H13.2696C13.2696 42.0111 13.2696 41.9595 13.2696 41.9285C13.2902 41.6315 13.196 41.3378 13.0065 41.1081C12.9185 41.0147 12.8116 40.9411 12.693 40.8922C12.5744 40.8432 12.4467 40.8201 12.3185 40.8243C12.0125 40.8248 11.7172 40.9367 11.4877 41.1391C11.2108 41.3909 11.0156 41.7197 10.927 42.0833L10.9304 42.0851Z"
      fill="white"
      fill-opacity="0.9"
    />
    <path
      d="M14.4048 44.5358L15.2768 40.3614H15.9046L15.7326 41.2214C15.9022 40.9503 16.1148 40.7086 16.3621 40.5059C16.5417 40.362 16.7634 40.2811 16.9934 40.2754C17.1746 40.2877 17.3508 40.34 17.5094 40.4285L17.2187 41.089C17.1015 41.0015 16.959 40.9544 16.8128 40.9548C16.5651 40.9548 16.3088 41.0941 16.0474 41.371C15.7859 41.648 15.5795 42.1485 15.4299 42.8674L15.0859 44.5427L14.4048 44.5358Z"
      fill="white"
      fill-opacity="0.9"
    />
    <path
      d="M20.1496 43.117L20.8376 43.1876C20.7084 43.5738 20.4693 43.9139 20.1496 44.1662C19.7952 44.4738 19.3391 44.6387 18.8699 44.6289C18.573 44.6324 18.2803 44.5589 18.0202 44.4156C17.7639 44.2741 17.5578 44.0566 17.4303 43.793C17.2915 43.5021 17.2221 43.183 17.2273 42.8608C17.229 42.4002 17.3373 41.9463 17.5438 41.5347C17.7215 41.1453 18.006 40.8143 18.3642 40.5801C18.6902 40.3749 19.0679 40.2669 19.453 40.2687C19.6729 40.2587 19.8925 40.2947 20.0978 40.3743C20.303 40.454 20.4894 40.5756 20.645 40.7314C20.7989 40.9027 20.9175 41.1027 20.9939 41.32C21.0704 41.5372 21.1032 41.7674 21.0904 41.9973C21.0896 42.2078 21.0712 42.4178 21.0354 42.6251H17.9686C17.9589 42.6981 17.9538 42.7717 17.9532 42.8453C17.9312 43.1661 18.0266 43.4839 18.2215 43.7397C18.3011 43.8372 18.4017 43.9155 18.5157 43.9688C18.6298 44.0221 18.7544 44.049 18.8802 44.0476C19.1416 44.0447 19.3957 43.9612 19.6078 43.8085C19.8504 43.6341 20.0383 43.3943 20.1496 43.117ZM18.0856 42.0851H20.4265C20.4265 42.0111 20.4265 41.9595 20.4265 41.9285C20.4464 41.6307 20.3502 41.3367 20.1582 41.1081C20.0705 41.0144 19.9637 40.9405 19.845 40.8916C19.7263 40.8426 19.5985 40.8197 19.4702 40.8243C19.1642 40.8248 18.8689 40.9367 18.6394 41.1391C18.3638 41.3913 18.1698 41.7201 18.0822 42.0833L18.0856 42.0851Z"
      fill="white"
      fill-opacity="0.9"
    />
    <path
      d="M25.456 43.958L25.3373 44.5394C25.1763 44.5828 25.0104 44.6054 24.8436 44.6065C24.6008 44.6189 24.3615 44.5452 24.1677 44.3984C24.1054 44.3462 24.056 44.2805 24.0232 44.2063C23.9904 44.132 23.9751 44.0512 23.9785 43.9701C23.9972 43.7592 24.0311 43.55 24.08 43.344L24.596 40.9188H24.0335L24.1488 40.3684H24.7095L24.9262 39.3364L25.7398 38.8462L25.4216 40.3615H26.1199L26.0029 40.9119H25.3149L24.8316 43.2184C24.7898 43.3917 24.7593 43.5675 24.7404 43.7448C24.7381 43.7802 24.7433 43.8157 24.7558 43.8489C24.7682 43.8821 24.7876 43.9123 24.8127 43.9374C24.8808 43.9883 24.9654 44.0122 25.05 44.0045C25.1867 44.005 25.323 43.9894 25.456 43.958Z"
      fill="white"
      fill-opacity="0.9"
    />
    <path
      d="M26.0303 44.5362L27.2343 38.7759H27.9463L27.4854 40.9878C27.7006 40.7659 27.9497 40.5796 28.2233 40.4357C28.4413 40.3247 28.6821 40.2659 28.9267 40.2637C29.2203 40.2456 29.5092 40.3431 29.7317 40.5354C29.8279 40.6287 29.9033 40.7413 29.9528 40.8658C30.0023 40.9904 30.0249 41.124 30.0189 41.2578C30.001 41.5305 29.9589 41.801 29.8934 42.0662L29.3774 44.531H28.6653L29.1968 42.0043C29.2508 41.7779 29.2887 41.548 29.3103 41.3163C29.3125 41.2535 29.301 41.191 29.2767 41.1331C29.2523 41.0752 29.2157 41.0233 29.1693 40.9809C29.054 40.8877 28.9078 40.8417 28.7599 40.8519C28.5046 40.8545 28.2546 40.9251 28.0358 41.0566C27.8058 41.1877 27.616 41.3792 27.4871 41.6104C27.3134 41.9693 27.1912 42.3509 27.1242 42.7439L26.751 44.5362H26.0303Z"
      fill="white"
      fill-opacity="0.9"
    />
    <path
      d="M33.5711 43.1171L34.2591 43.1877C34.13 43.574 33.8909 43.9141 33.5711 44.1663C33.2167 44.4739 32.7606 44.6388 32.2914 44.629C31.9945 44.6325 31.7018 44.559 31.4417 44.4158C31.1846 44.2752 30.9782 44.0574 30.8518 43.7931C30.7122 43.5025 30.6427 43.1832 30.6488 42.8609C30.6505 42.4003 30.7588 41.9464 30.9653 41.5347C31.1424 41.1455 31.4263 40.8145 31.784 40.5801C32.11 40.375 32.4876 40.267 32.8728 40.2688C33.093 40.2585 33.3129 40.2944 33.5185 40.374C33.7241 40.4537 33.9107 40.5755 34.0665 40.7315C34.3767 41.0779 34.5369 41.5331 34.5119 41.9974C34.5111 42.2079 34.4927 42.4179 34.4569 42.6252H31.3901C31.3804 42.6982 31.3753 42.7717 31.3746 42.8454C31.3524 43.1665 31.4484 43.4846 31.6447 43.7398C31.7241 43.8371 31.8244 43.9153 31.9381 43.9686C32.0519 44.0219 32.1761 44.0489 32.3017 44.0477C32.5614 44.0439 32.8135 43.9605 33.0241 43.8086C33.2691 43.6354 33.459 43.3954 33.5711 43.1171ZM31.5071 42.0851H33.848C33.848 42.0112 33.848 41.9596 33.848 41.9286C33.8684 41.631 33.7728 41.337 33.5814 41.1082C33.4934 41.0148 33.3866 40.9412 33.2679 40.8923C33.1493 40.8433 33.0217 40.8202 32.8934 40.8244C32.5876 40.8255 32.2925 40.9373 32.0626 41.1391C31.7869 41.3913 31.5929 41.7202 31.5054 42.0834L31.5071 42.0851Z"
      fill="white"
      fill-opacity="0.9"
    />
    <path
      d="M40.0314 43.9307C39.6255 44.3973 39.2012 44.6301 38.7586 44.629C38.5718 44.6331 38.3864 44.5961 38.2155 44.5206C38.0446 44.4451 37.8924 44.3329 37.7696 44.1921C37.5065 43.8997 37.3757 43.4749 37.3757 42.921C37.3696 42.4387 37.4762 41.9616 37.6871 41.5278C37.86 41.149 38.13 40.8226 38.4697 40.5818C38.7449 40.3857 39.0726 40.2767 39.4105 40.2688C39.6583 40.2649 39.9017 40.3339 40.1105 40.4672C40.3194 40.6006 40.4845 40.7923 40.5853 41.0187L41.0565 38.7827H41.7635L40.5595 44.543H39.9041L40.0314 43.9307ZM38.0827 42.7869C38.0743 43.0193 38.1033 43.2516 38.1687 43.4749C38.2247 43.6395 38.3267 43.7845 38.4628 43.8928C38.6042 44.0072 38.7814 44.0681 38.9633 44.0648C39.2855 44.0648 39.5773 43.8974 39.8388 43.5626C40.1994 43.0893 40.3853 42.506 40.3651 41.9114C40.3822 41.6295 40.2891 41.3519 40.1054 41.1374C40.0228 41.0473 39.9219 40.9758 39.8095 40.9278C39.6971 40.8797 39.5757 40.8562 39.4535 40.8587C39.2911 40.8569 39.1308 40.8959 38.9874 40.9723C38.8232 41.0709 38.6814 41.2027 38.5711 41.3593C38.421 41.569 38.3049 41.8012 38.2271 42.0473C38.1394 42.2844 38.0906 42.5341 38.0827 42.7869Z"
      fill="white"
      fill-opacity="0.9"
    />
    <path
      d="M41.6929 44.5358L42.5649 40.3614H43.1944L43.0224 41.2214C43.192 40.9498 43.4053 40.708 43.6537 40.5059C43.8324 40.3618 44.0537 40.2808 44.2832 40.2754C44.4645 40.2872 44.6408 40.3395 44.7992 40.4285L44.5085 41.089C44.3918 41.0017 44.25 40.9547 44.1043 40.9548C43.8549 40.9548 43.6004 41.0941 43.3372 41.371C43.074 41.648 42.8711 42.1485 42.7214 42.8674L42.3671 44.5427L41.6929 44.5358Z"
      fill="white"
      fill-opacity="0.9"
    />
    <path
      d="M47.4378 43.117L48.1258 43.1876C47.9961 43.5735 47.7571 43.9135 47.4378 44.1662C47.0834 44.4738 46.6273 44.6387 46.1581 44.6289C45.8606 44.6327 45.5673 44.5592 45.3067 44.4156C45.0505 44.2745 44.8449 44.0568 44.7185 43.793C44.5789 43.5024 44.5094 43.1831 44.5155 42.8608C44.5164 42.4001 44.6247 41.946 44.832 41.5347C45.0085 41.145 45.2925 40.8139 45.6507 40.5801C45.9767 40.3749 46.3543 40.2669 46.7395 40.2687C46.9594 40.2587 47.179 40.2947 47.3843 40.3743C47.5895 40.454 47.7759 40.5756 47.9314 40.7314C48.0857 40.9026 48.2046 41.1025 48.2813 41.3198C48.3581 41.537 48.3911 41.7673 48.3786 41.9973C48.3778 42.2078 48.3594 42.4178 48.3236 42.6251H45.2568C45.2471 42.6981 45.242 42.7717 45.2413 42.8453C45.2191 43.1664 45.3151 43.4845 45.5114 43.7397C45.5907 43.8372 45.6909 43.9155 45.8047 43.9688C45.9185 44.0221 46.0428 44.049 46.1684 44.0476C46.4269 44.0431 46.6778 43.9597 46.8874 43.8085C47.1336 43.6358 47.3247 43.3957 47.4378 43.117ZM45.3738 42.0851H47.713C47.713 42.0111 47.713 41.9595 47.713 41.9285C47.7326 41.631 47.6372 41.3373 47.4464 41.1081C47.3584 41.0147 47.2515 40.9411 47.1329 40.8922C47.0143 40.8432 46.8866 40.8201 46.7584 40.8243C46.4524 40.8248 46.1571 40.9367 45.9276 41.1391C45.6527 41.3919 45.4588 41.7205 45.3703 42.0833L45.3738 42.0851Z"
      fill="white"
      fill-opacity="0.9"
    />
    <path
      d="M51.6621 44.0167C51.4496 44.2071 51.2095 44.3643 50.95 44.4828C50.719 44.5813 50.4701 44.6311 50.219 44.629C50.0488 44.6362 49.8789 44.6095 49.7192 44.5504C49.5595 44.4914 49.413 44.4011 49.2885 44.285C49.1719 44.1728 49.0801 44.0373 49.019 43.8874C48.958 43.7375 48.9291 43.5765 48.9342 43.4147C48.9297 43.1975 48.9851 42.9833 49.0941 42.7955C49.1972 42.6193 49.3419 42.4711 49.5155 42.3638C49.7142 42.2465 49.9329 42.1672 50.1605 42.1298C50.4618 42.0849 50.7658 42.0596 51.0704 42.0542C51.3956 42.0561 51.7192 42.0085 52.0301 41.9131C52.0804 41.7567 52.1088 41.594 52.1144 41.4298C52.1173 41.3551 52.1022 41.2809 52.0705 41.2133C52.0388 41.1456 51.9913 41.0866 51.9321 41.0411C51.7202 40.8963 51.4657 40.8272 51.2097 40.845C50.9509 40.8334 50.6948 40.9025 50.477 41.0428C50.2822 41.1818 50.1369 41.3795 50.0625 41.6069L49.3435 41.5433C49.4677 41.1602 49.712 40.8273 50.0401 40.5939C50.3981 40.3629 50.8184 40.2476 51.2441 40.2636C51.6828 40.2393 52.1162 40.3695 52.4687 40.6317C52.5785 40.7153 52.6669 40.8238 52.7267 40.9481C52.7865 41.0725 52.816 41.2093 52.8127 41.3472C52.8082 41.608 52.7753 41.8675 52.7147 42.1212L52.4825 43.1532C52.4187 43.4177 52.3824 43.688 52.3741 43.9599C52.3823 44.1511 52.4111 44.3408 52.4601 44.5258H51.7412C51.6981 44.3591 51.6716 44.1886 51.6621 44.0167ZM51.9252 42.4222C51.8215 42.4617 51.7145 42.4917 51.6053 42.5117C51.4901 42.5323 51.3009 42.5547 51.0326 42.5788C50.7367 42.595 50.4433 42.6417 50.1571 42.7181C50.0025 42.7633 49.867 42.8582 49.7718 42.9881C49.6866 43.1068 49.6414 43.2496 49.6428 43.3958C49.6401 43.4876 49.657 43.5789 49.6923 43.6637C49.7276 43.7485 49.7805 43.8249 49.8475 43.8877C50.0117 44.0248 50.2222 44.0937 50.4357 44.0803C50.6795 44.077 50.9182 44.0098 51.1279 43.8855C51.3377 43.7611 51.5112 43.584 51.6311 43.3717C51.7811 43.0737 51.8805 42.7528 51.9252 42.4222Z"
      fill="white"
      fill-opacity="0.9"
    />
    <path
      d="M53.3198 44.5357L54.1919 40.3613H54.9022L54.7578 41.0493C54.9584 40.8073 55.1978 40.6004 55.4664 40.437C55.674 40.323 55.9073 40.2639 56.1441 40.265C56.3781 40.2567 56.6078 40.3296 56.7942 40.4714C56.9736 40.6159 57.0955 40.8196 57.1382 41.0459C57.3224 40.8094 57.5501 40.6103 57.8091 40.4593C58.0346 40.3315 58.2894 40.2645 58.5487 40.265C58.8323 40.2431 59.1134 40.3319 59.333 40.5127C59.422 40.6029 59.4912 40.7106 59.5362 40.8291C59.5812 40.9476 59.6011 41.0741 59.5944 41.2007C59.5835 41.415 59.5535 41.628 59.505 41.8371L58.9425 44.5254H58.2305L58.8049 41.7734C58.8449 41.615 58.8697 41.4532 58.8789 41.2901C58.882 41.2303 58.8721 41.1706 58.8498 41.1151C58.8275 41.0595 58.7934 41.0095 58.7499 40.9685C58.6481 40.8835 58.5175 40.841 58.3853 40.8498C58.1557 40.8543 57.9316 40.9209 57.7368 41.0424C57.5234 41.1627 57.3454 41.3371 57.2208 41.5481C57.0678 41.8506 56.96 42.174 56.9009 42.5079L56.4778 44.5323H55.7657L56.3556 41.7149C56.3887 41.5807 56.4094 41.4436 56.4176 41.3056C56.4208 41.2446 56.4112 41.1836 56.3892 41.1265C56.3672 41.0695 56.3334 41.0178 56.2901 40.9748C56.2467 40.9317 56.1947 40.8983 56.1376 40.8768C56.0804 40.8553 56.0193 40.8461 55.9583 40.8498C55.7334 40.8564 55.5143 40.9229 55.3236 41.0424C55.1011 41.1727 54.9152 41.3573 54.7836 41.5791C54.6161 41.8849 54.4999 42.2161 54.4396 42.5595L54.0267 44.5323L53.3198 44.5357Z"
      fill="white"
      fill-opacity="0.9"
    />
    <path
      d="M62.2642 44.5362L63.4682 38.7759H64.1802L63.752 40.8399C63.9326 40.6634 64.1391 40.5155 64.3643 40.4013C64.5439 40.3168 64.7402 40.2733 64.9387 40.274C65.1233 40.2701 65.3065 40.3072 65.4751 40.3824C65.6437 40.4576 65.7936 40.5692 65.914 40.7092C66.1754 40.9993 66.3061 41.4224 66.3061 41.9785C66.3098 42.3232 66.2563 42.6661 66.1479 42.9933C66.0588 43.2687 65.9277 43.5286 65.7592 43.7639C65.6239 43.9522 65.4623 44.1202 65.2793 44.2627C65.1261 44.3815 64.9556 44.476 64.7736 44.543C64.6136 44.6012 64.445 44.632 64.2748 44.6342C64.0157 44.639 63.7615 44.5633 63.5473 44.4175C63.3206 44.2489 63.1493 44.0165 63.0554 43.7501L62.892 44.5413L62.2642 44.5362ZM63.3185 42.8162V42.9486C63.2981 43.2424 63.3897 43.5331 63.5748 43.7622C63.6543 43.852 63.7524 43.9234 63.8623 43.9715C63.9722 44.0196 64.0913 44.0433 64.2112 44.0408C64.4649 44.0412 64.7098 43.9481 64.8992 43.7794C65.1397 43.5575 65.3176 43.2764 65.4152 42.9641C65.54 42.6375 65.6075 42.2919 65.6147 41.9424C65.6333 41.6483 65.5433 41.3576 65.3619 41.1254C65.2855 41.0332 65.1895 40.9593 65.0809 40.909C64.9723 40.8587 64.8538 40.8333 64.7341 40.8347C64.469 40.8394 64.2158 40.946 64.0272 41.1323C63.7767 41.3889 63.592 41.7022 63.4888 42.0456C63.3885 42.2951 63.3304 42.5596 63.3168 42.8282L63.3185 42.8162Z"
      fill="white"
      fill-opacity="0.9"
    />
    <path
      d="M69.8025 43.1171L70.4905 43.1876C70.3608 43.5736 70.1218 43.9136 69.8025 44.1663C69.4481 44.4739 68.992 44.6388 68.5228 44.629C68.2254 44.6327 67.932 44.5593 67.6714 44.4157C67.4153 44.2746 67.2096 44.0569 67.0832 43.7931C66.9437 43.5025 66.8742 43.1832 66.8803 42.8608C66.8811 42.4002 66.9895 41.9461 67.1967 41.5347C67.3738 41.1455 67.6577 40.8145 68.0154 40.5801C68.3414 40.375 68.7191 40.267 69.1042 40.2688C69.3242 40.2585 69.5438 40.2944 69.7491 40.3741C69.9544 40.4538 70.1407 40.5755 70.2962 40.7315C70.4504 40.9026 70.5693 41.1026 70.646 41.3198C70.7228 41.5371 70.7559 41.7673 70.7433 41.9974C70.7425 42.2078 70.7241 42.4178 70.6883 42.6252H67.6216C67.6119 42.6982 67.6067 42.7717 67.6061 42.8454C67.5838 43.1665 67.6799 43.4846 67.8761 43.7398C67.9556 43.8371 68.0558 43.9153 68.1696 43.9685C68.2833 44.0218 68.4076 44.0489 68.5332 44.0476C68.7916 44.0432 69.0425 43.9598 69.2521 43.8086C69.4983 43.6359 69.6894 43.3958 69.8025 43.1171ZM67.7385 42.0851H70.0812C70.0812 42.0112 70.0812 41.9596 70.0812 41.9286C70.1015 41.631 70.006 41.337 69.8146 41.1082C69.7266 41.0148 69.6197 40.9412 69.5011 40.8922C69.3825 40.8433 69.2548 40.8202 69.1266 40.8244C68.8207 40.8252 68.5254 40.937 68.2958 41.1391C68.0196 41.3915 67.8245 41.7201 67.7351 42.0834L67.7385 42.0851Z"
      fill="white"
      fill-opacity="0.9"
    />
    <path
      d="M71.1735 44.9127L71.8924 44.9798C71.8807 45.1045 71.9014 45.2301 71.9526 45.3445C72.0003 45.4291 72.0747 45.4957 72.1642 45.5337C72.3228 45.5962 72.4926 45.6255 72.663 45.6197C73.093 45.6197 73.402 45.5084 73.5901 45.286C73.7139 45.1358 73.8286 44.8107 73.9341 44.3107L74.0046 43.9667C73.8569 44.1359 73.6762 44.273 73.4736 44.3698C73.271 44.4665 73.0508 44.5207 72.8264 44.5292C72.6265 44.5331 72.4282 44.4934 72.2452 44.4129C72.0623 44.3324 71.899 44.213 71.7669 44.063C71.4831 43.7517 71.3403 43.3131 71.3403 42.7438C71.338 42.2903 71.4568 41.8444 71.6843 41.4521C71.875 41.0954 72.1488 40.7898 72.4824 40.5611C72.765 40.3699 73.0975 40.2658 73.4387 40.2618C73.7014 40.2583 73.9598 40.3295 74.1836 40.4671C74.4074 40.6048 74.5875 40.8032 74.7029 41.0393L74.8439 40.3513H75.4975L74.6478 44.3898C74.5832 44.7509 74.4613 45.0993 74.2866 45.4218C74.1372 45.6685 73.9215 45.8682 73.664 45.9981C73.3773 46.1382 73.0612 46.2077 72.7421 46.201C72.4502 46.2066 72.1595 46.163 71.8821 46.072C71.6668 46.0048 71.4776 45.8726 71.3403 45.6936C71.2237 45.5258 71.1634 45.3252 71.1683 45.1208C71.1647 45.0514 71.1665 44.9819 71.1735 44.9127ZM72.0679 42.6888C72.0584 42.9069 72.0863 43.1251 72.1504 43.3338C72.2148 43.5169 72.3314 43.6772 72.4858 43.7947C72.6257 43.8994 72.7962 43.955 72.9709 43.953C73.2201 43.9456 73.4608 43.8602 73.6589 43.7087C73.9135 43.5131 74.1079 43.2496 74.2196 42.9485C74.3551 42.6379 74.4275 42.3035 74.4328 41.9646C74.4482 41.6652 74.3464 41.3716 74.1491 41.1459C74.06 41.0478 73.951 40.9699 73.8294 40.9174C73.7078 40.8649 73.5763 40.839 73.4439 40.8415C73.2665 40.8426 73.0927 40.8907 72.9399 40.9808C72.7612 41.09 72.6066 41.2346 72.4858 41.4056C72.3382 41.6134 72.2303 41.8466 72.1676 42.0936C72.1104 42.2873 72.0769 42.4871 72.0679 42.6888Z"
      fill="white"
      fill-opacity="0.9"
    />
    <path
      d="M75.6611 44.5362L76.54 40.3617H77.2521L76.368 44.5362H75.6611ZM76.6931 39.5808L76.8651 38.7759H77.572L77.4 39.5808H76.6931Z"
      fill="white"
      fill-opacity="0.9"
    />
    <path
      d="M77.4771 44.5358L78.3491 40.3614H78.9924L78.8393 41.0889C79.0693 40.8434 79.3341 40.633 79.6254 40.4646C79.854 40.338 80.1106 40.2706 80.3719 40.2685C80.6633 40.2514 80.9496 40.3503 81.1682 40.5437C81.2654 40.6388 81.3414 40.7535 81.3912 40.88C81.441 41.0066 81.4635 41.1423 81.4572 41.2781C81.445 41.5244 81.4105 41.7691 81.354 42.0091L80.8242 44.5358H80.1139L80.6677 41.8905C80.7132 41.7037 80.7408 41.5131 80.7503 41.3211C80.7532 41.2567 80.7417 41.1924 80.7168 41.1329C80.6918 41.0734 80.6539 41.0202 80.6058 40.9771C80.4886 40.8838 80.3407 40.8378 80.1913 40.8481C79.8283 40.8473 79.4794 40.9887 79.2194 41.242C78.9362 41.5035 78.7269 41.9524 78.5916 42.5888L78.1874 44.5306L77.4771 44.5358Z"
      fill="white"
      fill-opacity="0.9"
    />
    <path
      d="M82.0183 43.1083L82.7304 43.0653C82.7263 43.2419 82.7585 43.4175 82.825 43.5813C82.8964 43.7348 83.0176 43.8597 83.169 43.9356C83.3515 44.0303 83.555 44.0776 83.7606 44.0732C84.0109 44.0915 84.2599 44.0248 84.4676 43.884C84.5388 43.8336 84.5973 43.7672 84.6382 43.6902C84.6791 43.6131 84.7014 43.5275 84.7032 43.4402C84.6993 43.3123 84.6492 43.1901 84.5622 43.0962C84.3515 42.9195 84.1109 42.7821 83.8518 42.6903C83.6049 42.5903 83.3642 42.4754 83.1311 42.3463C82.9695 42.2543 82.8325 42.1245 82.7321 41.9679C82.6413 41.8169 82.5948 41.6435 82.5979 41.4674C82.5972 41.3057 82.632 41.1458 82.6997 40.999C82.7675 40.8522 82.8666 40.7221 82.9901 40.6177C83.3011 40.3694 83.6938 40.2467 84.0909 40.2737C84.6137 40.2737 85.0151 40.3947 85.2949 40.6366C85.4299 40.7564 85.5377 40.9037 85.611 41.0687C85.6843 41.2337 85.7214 41.4124 85.7197 41.5929L85.0317 41.6411C85.0317 41.5282 85.008 41.4166 84.9621 41.3135C84.9161 41.2103 84.849 41.118 84.7651 41.0425C84.5623 40.8854 84.3091 40.8077 84.053 40.8241C83.8477 40.8111 83.6445 40.8721 83.4803 40.9961C83.4207 41.0373 83.3713 41.0916 83.3358 41.1548C83.3003 41.218 83.2798 41.2884 83.2756 41.3607C83.2765 41.4273 83.2925 41.4929 83.3222 41.5524C83.352 41.612 83.3949 41.6641 83.4476 41.7047C83.6371 41.8339 83.8415 41.9396 84.0565 42.0195C84.6023 42.2557 84.9463 42.4415 85.0885 42.5768C85.1982 42.6778 85.2855 42.8007 85.3447 42.9376C85.404 43.0745 85.4339 43.2223 85.4325 43.3714C85.4291 43.5886 85.3628 43.8001 85.2415 43.9803C85.0984 44.1925 84.8963 44.3581 84.6602 44.4567C84.369 44.5802 84.0544 44.6389 83.7383 44.6287C83.3009 44.6421 82.8705 44.5169 82.5085 44.271C82.1645 44.0336 82.0011 43.646 82.0183 43.1083Z"
      fill="white"
      fill-opacity="0.9"
    />
    <path
      d="M13.5638 19.1538C13.5638 19.1538 21.6065 17.6058 21.6065 9.45297C21.6065 1.30017 13.8459 0.0996094 11.4602 0.0996094H0.211426V35.5798H4.36007V20.3165H7.77943C9.69895 20.3165 11.6185 20.6175 14.2724 24.8384L20.6691 35.5712H25.6279L17.8191 23.0685C17.8191 23.0685 15.9254 19.8779 13.5638 19.1538ZM10.6398 16.7337H4.36007V3.86297H10.6019C10.6019 3.86297 17.2119 3.58433 17.2119 9.94317C17.2119 16.1679 11.1455 16.7337 10.6312 16.7337H10.6398Z"
      fill="#BB2428"
    />
    <path
      d="M32.104 5.10303H27.9141V35.5798H32.104V5.10303Z"
      fill="white"
      fill-opacity="0.9"
    />
    <path
      d="M32.104 0H27.9141V4.18992H32.104V0Z"
      fill="white"
      fill-opacity="0.9"
    />
    <path
      d="M86 5.10303H81.8101V35.5798H86V5.10303Z"
      fill="white"
      fill-opacity="0.9"
    />
    <path
      d="M79.278 5.09277H61.8252V9.2827H79.278V5.09277Z"
      fill="white"
      fill-opacity="0.9"
    />
    <path
      d="M79.278 31.3901H61.8252V35.5801H79.278V31.3901Z"
      fill="white"
      fill-opacity="0.9"
    />
    <path
      d="M73.5934 18.2422H61.8252V22.4321H73.5934V18.2422Z"
      fill="white"
      fill-opacity="0.9"
    />
    <path
      d="M51.1648 5.09277H46.5122L33.7446 20.3423L46.5122 35.5815H51.1648L38.3955 20.3423L51.1648 5.09277Z"
      fill="white"
      fill-opacity="0.9"
    />
    <path
      d="M55.164 5.09277L42.3965 20.3423L55.164 35.5815H59.8166L47.0474 20.3423L59.8166 5.09277H55.164Z"
      fill="#BB2428"
    />
  </g>
  <defs>
    <clipPath id="clip0">
      <rect width="86" height="46.2044" fill="white" />
    </clipPath>
  </defs>
</svg>
